<svg width="1000" height="724" viewBox="0 0 1000 724" fill="none" xmlns="http://www.w3.org/2000/svg">
    <rect x="0.500031" y="0.5" width="999" height="721.953" stroke="#D5CDC4"/>
    <line x1="128.386" y1="1.18477" x2="0.984796" y2="723.126" stroke="#D5CDC4" stroke-width="2" stroke-dasharray="4 4"/>
    <line x1="249.721" y1="1.18477" x2="122.319" y2="723.126" stroke="#D5CDC4" stroke-width="2" stroke-dasharray="4 4"/>
    <line x1="873.583" y1="1.18477" x2="746.182" y2="723.126" stroke="#D5CDC4" stroke-width="2" stroke-dasharray="4 4"/>
    <line x1="998.963" y1="1.18477" x2="871.561" y2="723.126" stroke="#D5CDC4" stroke-width="2" stroke-dasharray="4 4"/>
    <line x1="1000" y1="117.279" x2="-6.23782e-05" y2="117.279" stroke="#D5CDC4" stroke-width="2" stroke-dasharray="4 4"/>
    <line x1="1000" y1="606.663" x2="-6.23782e-05" y2="606.663" stroke="#D5CDC4" stroke-width="2" stroke-dasharray="4 4"/>
    <path d="M242.727 251.97C246.456 251.97 248.139 254.007 247.472 257.76L218.875 420.372C214.827 443.384 219.34 448.272 242.873 448.272H292.26C296.061 448.272 297.671 450.308 297.004 454.061L292.187 481.466C291.52 485.205 289.198 487.241 285.397 487.241H229.742C178.73 487.241 168.139 465.858 174.987 426.932L204.73 257.76C205.397 254.021 207.776 251.97 211.52 251.97H242.727V251.97Z" fill="white"/>
    <path d="M467.668 251.97C471.397 251.97 473.08 254.007 472.412 257.76L467.596 285.165C466.943 288.903 464.607 290.94 460.82 290.94H418.368C390.454 290.94 383.635 294.256 379.297 318.927L374.567 345.793C374.349 347.074 375.35 348.295 376.627 348.295H434.56C438.288 348.295 439.971 350.332 439.304 354.07L434.487 381.475C433.834 385.214 431.44 387.25 427.697 387.25H369.764C368.488 387.25 367.008 388.749 366.79 389.956L361.451 420.285C357.113 444.955 362.771 448.272 390.686 448.272H433.138C436.939 448.272 438.549 450.308 437.882 454.061L433.065 481.466C432.412 485.205 430.076 487.241 426.29 487.241H378.382C323.061 487.241 310.337 467.924 317.998 424.401L337.265 314.839C344.926 271.317 364.44 251.999 411.723 251.999H467.668V251.97Z" fill="white"/>
    <path d="M638.274 251.912C642.003 251.912 643.686 253.949 643.018 257.702L638.245 284.83C637.592 288.569 635.198 290.62 631.455 290.62H585.652C584.375 290.62 582.721 291.565 582.445 293.122L549.322 481.452C548.669 485.19 546.275 487.241 542.532 487.241H511.6C507.871 487.241 506.188 485.205 506.856 481.452L539.979 293.107C540.254 291.551 539.195 290.605 537.919 290.605H491.578C487.835 290.605 486.166 288.569 486.819 284.816L491.593 257.687C492.246 253.949 494.64 251.898 498.368 251.898H638.274V251.912Z" fill="white"/>
    <path d="M822.591 252.305C826.174 253.266 828.423 255.287 826.987 260.32L819.37 288.147C818.688 290.518 816.947 292.293 813.697 292.293C809.983 292.293 783.925 289.413 764.789 289.413C737.368 289.413 730.752 297.981 730.752 315.727C730.752 331.059 745.028 337.59 767.299 350.624C796.62 367.803 807.879 380.051 807.879 405.405C807.879 451.734 796.475 490.413 718.855 490.413C702.794 490.413 677.273 487.155 668.974 484.376C662.823 482.282 661.807 478.66 663.896 471.386L670.512 449.291C671.252 446.643 672.993 444.869 676.243 444.869C680.741 444.869 699.152 449.814 721.132 449.814C753.443 449.814 763.86 439.137 763.86 416.416C763.86 402.059 754.444 394.131 730.142 380.443C701.256 364.181 687.211 349.431 687.211 321.866C687.211 282.329 700.4 248.814 768.314 248.814C786.798 248.8 813.552 249.833 822.591 252.305Z" fill="white"/>
    <path d="M639.16 159.748C634.662 167.282 633.081 174.701 639.595 181.334C644.412 186.251 650.186 186.178 657.107 181.814C651.361 193.524 636.214 195.386 626.943 188.04C614.321 178.032 613.726 158.889 626.32 144.721C627.698 152.256 630.208 158.671 639.16 159.748ZM709.018 139.848C693.944 121.316 674.27 114.436 650.694 118.349C628.235 122.073 609.025 140.736 606.399 161.74C603.73 183.152 618.238 202.164 638.275 203.546C653.538 204.594 668.003 193.32 669.453 179.269C670.89 165.362 663.897 157.74 649.2 155.558C647.168 151.063 646.399 145.739 643.744 144.489C640.814 143.121 636.127 145.507 630.933 146.496C632.079 143.601 632.442 138.903 634.938 136.997C645.268 129.099 657.252 127.28 671.325 129.419C668.104 131.324 666.058 132.241 664.346 133.579C657.426 138.932 657.252 149.507 664.477 153.333C667.002 154.671 671.789 154.584 673.966 152.998C677.593 150.351 676.185 146.176 673.327 143.063C672.036 141.667 670.382 140.605 668.83 139.339C680.262 130.408 700.096 138.35 706.842 160.402C704.811 159.689 703.534 157.624 701.691 156.664C691.434 151.311 677.81 156.838 675.794 166.962C674.822 171.806 675.663 176.548 680.378 178.309C683.309 179.414 688.053 179.036 690.52 177.276C694.829 174.192 693.741 169.479 690.883 165.377C690.65 165.042 690.665 164.548 690.433 163.602C699.065 162.759 703.824 165.61 708.119 173.886C712.979 183.269 710.904 199.561 703.331 208.71C702.446 205.132 702.069 201.743 700.792 198.746C698.035 192.302 692.885 188.724 685.935 187.836C680.669 187.167 676.2 188.695 673.124 193.175C670.15 197.495 669.976 201.961 673.487 206.092C676.679 209.83 681.075 210.674 684.862 207.968C687.401 206.15 688.648 202.513 690.491 199.677C702.315 207.037 697.76 230.442 682.453 245.09C681.815 241.177 681.96 236.886 680.32 233.453C678.101 228.799 675.184 224.027 671.354 220.711C666.827 216.783 658.732 219.169 655.54 224.202C652.725 228.639 653.567 234.37 657.484 237.439C662.402 241.294 666.247 240.363 671.456 234.108C671.673 233.846 672.225 233.89 672.631 233.788C676.084 244.668 675.387 252.698 674.082 258.051C672.587 264.175 670.469 266.139 665.957 277.441C664.027 282.285 660.966 289.936 659.704 296.089C658.398 302.373 657.411 314.592 665.986 331.684C662.852 318.112 664.071 307.363 665.304 301.122C667.292 290.984 671.136 283.521 675.126 275.899C679.987 266.59 684.673 261.237 688.445 255.04C697.905 239.432 708.641 224.376 716.2 207.881C726.922 184.432 726.022 160.766 709.018 139.848Z" fill="#4D97D4"/>
    <path d="M189.597 540.786C190.642 541.048 191.063 541.746 190.743 542.851L189.162 548.554C189.017 549.063 188.553 549.485 187.943 549.485C186.971 549.485 182.706 548.612 178.281 548.612C167.791 548.612 163.264 551.434 159.419 572.54C158.331 578.431 157.765 582.897 157.765 586.403C157.765 595.189 161.436 596.949 169.198 596.949C174.769 596.949 178.15 595.858 179.572 595.858C180.167 595.858 180.486 596.28 180.428 596.905L180.21 601.269C180.138 602.709 179.456 603.582 178.063 604.178C176.264 604.935 173.13 605.662 165.934 605.662C152.76 605.662 147.624 599.858 147.624 587.697C147.624 583.61 148.248 578.635 149.365 572.555C153.674 548.815 160.362 539.695 177.715 539.695C183.997 539.666 187.711 540.262 189.597 540.786Z" fill="white"/>
    <path d="M230.41 548.946C221.139 548.946 218.266 552.539 214.726 572.613C213.594 579.057 212.999 583.814 212.999 587.305C212.999 594.738 215.756 596.396 222.067 596.396C231.033 596.396 234.095 592.789 237.635 572.613C238.738 566.329 239.347 561.645 239.347 558.183C239.347 550.634 236.561 548.961 230.41 548.946ZM249.59 555.827C249.59 560.307 248.894 565.849 247.704 572.526C243.656 595.509 238.912 605.633 220.442 605.633C207.239 605.633 202.843 600.469 202.843 589.327C202.843 584.803 203.598 579.232 204.773 572.526C208.806 549.601 213.507 539.782 232.02 539.782C245.208 539.782 249.59 544.801 249.59 555.827Z" fill="white"/>
    <path d="M318.23 540.612C320.16 540.612 321.132 541.805 320.74 544.031L310.236 603.772C310.12 604.398 309.627 604.819 309.003 604.819H301.328C300.762 604.819 300.414 604.398 300.53 603.772L307.726 562.854C307.813 562.344 307.566 562.272 307.247 562.708L295.075 578.345C294.044 579.684 292.695 580.324 291.331 580.324C289.953 580.324 288.836 579.684 288.285 578.345L281.611 562.708C281.436 562.272 281.161 562.344 281.074 562.854L273.878 603.772C273.761 604.398 273.283 604.819 272.702 604.819H265.027C264.403 604.819 264.055 604.398 264.157 603.772L274.661 544.031C275.053 541.805 276.446 540.612 278.375 540.612H279.841C281.524 540.612 282.22 541.281 282.699 542.401L292.797 565.966C293.145 566.796 293.246 566.97 293.682 566.97C294.131 566.97 294.277 566.796 294.929 565.966L313.312 542.401C314.197 541.281 315.111 540.612 316.794 540.612H318.23Z" fill="white"/>
    <path d="M388.219 540.612C390.149 540.612 391.121 541.805 390.729 544.031L380.225 603.772C380.109 604.398 379.63 604.819 378.992 604.819H371.317C370.751 604.819 370.403 604.398 370.504 603.772L377.7 562.854C377.788 562.344 377.541 562.272 377.222 562.708L365.049 578.345C364.019 579.684 362.67 580.324 361.291 580.324C359.913 580.324 358.796 579.684 358.245 578.345L351.571 562.708C351.397 562.272 351.121 562.344 351.034 562.854L343.838 603.772C343.721 604.398 343.243 604.819 342.662 604.819H334.987C334.363 604.819 334.015 604.398 334.117 603.772L344.621 544.031C345.013 541.805 346.406 540.612 348.335 540.612H349.801C351.484 540.612 352.18 541.281 352.659 542.401L362.757 565.966C363.105 566.796 363.206 566.97 363.642 566.97C364.077 566.97 364.237 566.796 364.889 565.966L383.272 542.401C384.157 541.281 385.071 540.612 386.754 540.612H388.219Z" fill="white"/>
    <path d="M453.929 540.612C454.437 540.612 454.843 541.034 454.727 541.66L446.878 586.258C444.687 598.71 440.537 605.401 423.765 605.401C407.008 605.401 405.224 598.71 407.414 586.258L415.263 541.66C415.38 541.034 415.873 540.612 416.439 540.612H423.998C424.621 540.612 425.028 541.034 424.912 541.66L417.048 586.418C415.684 594.157 417.019 596.586 425.318 596.586C433.501 596.586 435.779 594.157 437.142 586.418L445.02 541.66C445.137 541.034 445.63 540.612 446.254 540.612H453.929Z" fill="white"/>
    <path d="M517.65 540.612C518.158 540.612 518.564 541.034 518.463 541.601L507.944 601.401C507.552 603.627 506.159 604.819 503.94 604.819H500.951C500.138 604.819 499.703 604.543 499.529 603.99L485.151 562.883C484.919 562.344 484.484 562.461 484.382 563.057L477.244 603.83C477.142 604.398 476.591 604.819 476.083 604.819H468.35C467.784 604.819 467.436 604.398 467.538 603.83L478.056 544.031C478.448 541.805 479.841 540.612 482.061 540.612H485.528C486.529 540.612 486.921 540.889 487.269 541.674L500.98 581.705C501.154 582.244 501.705 582.127 501.821 581.531L508.858 541.616C508.959 541.049 509.453 540.627 509.961 540.627H517.65V540.612Z" fill="white"/>
    <path d="M550.831 540.612C551.702 540.612 552.093 541.092 551.934 541.951L541.111 603.467C540.951 604.339 540.4 604.805 539.529 604.805H532.318C531.448 604.805 531.056 604.325 531.216 603.467L542.039 541.951C542.199 541.078 542.75 540.612 543.621 540.612H550.831Z" fill="white"/>
    <path d="M608.677 540.786C609.722 541.048 610.142 541.746 609.823 542.851L608.242 548.554C608.097 549.063 607.632 549.485 607.023 549.485C606.051 549.485 601.785 548.612 597.36 548.612C586.871 548.612 582.344 551.434 578.499 572.54C577.411 578.431 576.845 582.897 576.845 586.403C576.845 595.189 580.516 596.949 588.278 596.949C593.849 596.949 597.23 595.858 598.652 595.858C599.261 595.858 599.551 596.28 599.508 596.905L599.29 601.269C599.217 602.709 598.535 603.582 597.143 604.178C595.344 604.935 592.21 605.662 585.014 605.662C571.854 605.662 566.704 599.858 566.704 587.697C566.704 583.61 567.328 578.635 568.445 572.555C572.754 548.815 579.442 539.695 596.794 539.695C603.077 539.666 606.791 540.262 608.677 540.786Z" fill="white"/>
    <path d="M724.615 540.568C725.485 540.568 725.877 541.048 725.717 541.906L724.644 548.03C724.499 548.888 723.933 549.383 723.062 549.383H709.918C709.584 549.383 709.178 549.63 709.12 550.023L699.718 603.466C699.573 604.339 699.007 604.804 698.137 604.804H691.158C690.287 604.804 689.896 604.324 690.055 603.466L699.457 550.023C699.529 549.63 699.268 549.383 698.935 549.383H685.674C684.803 549.383 684.411 548.903 684.571 548.03L685.645 541.906C685.79 541.033 686.356 540.568 687.226 540.568H724.615Z" fill="white"/>
    <path d="M776.468 540.612C777.324 540.612 777.73 541.092 777.571 541.95L776.483 548.133C776.338 549.005 775.801 549.485 774.901 549.485H762.671C754.444 549.485 752.587 550.547 751.281 557.98L749.7 566.97C749.642 567.304 749.889 567.61 750.222 567.61H767.85C768.721 567.61 769.112 568.09 768.953 568.948L767.865 575.13C767.705 575.989 767.154 576.469 766.283 576.469H748.655C748.322 576.469 747.959 576.832 747.901 577.123L746.087 587.422C744.782 594.855 746.262 595.917 754.488 595.917H766.719C767.618 595.917 767.981 596.397 767.821 597.255L766.733 603.452C766.573 604.325 766.051 604.79 765.152 604.79H751.746C737.397 604.79 734.147 600.063 736.178 588.557L741.764 556.817C743.795 545.311 748.699 540.583 761.278 540.583H776.468V540.612Z" fill="white"/>
    <path d="M652.739 578.257C652.667 578.708 652.304 579.013 651.854 579.013H635.184C634.734 579.013 634.488 578.708 634.56 578.257L636.475 567.347H636.432C639.464 551.885 641.234 548.961 648.662 548.961C653.146 548.961 655.365 550.634 655.365 558.198C655.365 560.714 655.075 563.9 654.538 567.871L652.739 578.257ZM650.113 539.782C634.995 539.782 630.222 548.132 626.784 567.347L620.429 603.466C620.284 604.339 620.675 604.804 621.531 604.804H628.568C629.381 604.804 629.917 604.368 630.106 603.582C630.121 603.538 630.135 603.509 630.15 603.466L632.761 588.643C632.819 588.294 633.022 588.119 633.269 588.003C633.385 587.945 633.501 587.887 633.646 587.887H650.316C650.592 587.887 650.752 588.003 650.853 588.192C650.911 588.309 650.969 588.439 650.94 588.643L648.343 603.466C648.285 603.815 648.329 604.091 648.445 604.295C648.604 604.615 648.938 604.804 649.446 604.804H656.468C657.339 604.804 657.89 604.324 658.05 603.466L661.445 584.148C662.213 580.715 662.895 576.846 663.563 572.526C663.708 571.624 663.809 570.78 663.94 569.922C664.071 569.049 664.201 568.177 664.303 567.347C664.883 562.94 665.217 559.1 665.217 555.827C665.202 544.801 660.98 539.782 650.113 539.782Z" fill="white"/>
    <path d="M879.387 159.748C874.889 167.283 873.308 174.701 879.822 181.334C884.639 186.251 890.413 186.178 897.334 181.814C891.588 193.524 876.441 195.386 867.17 188.04C854.548 178.032 853.953 158.89 866.547 144.721C867.925 152.256 870.435 158.671 879.387 159.748ZM949.245 139.849C934.171 121.317 914.497 114.436 890.921 118.349C868.462 122.073 849.252 140.736 846.626 161.741C843.957 183.153 858.465 202.165 878.502 203.547C893.765 204.594 908.23 193.32 909.68 179.269C911.117 165.363 904.124 157.74 889.427 155.558C887.395 151.064 886.626 145.74 883.971 144.489C881.041 143.121 876.354 145.507 871.16 146.496C872.306 143.601 872.669 138.903 875.165 136.997C885.495 129.099 897.479 127.281 911.552 129.419C908.331 131.324 906.285 132.241 904.573 133.579C897.653 138.932 897.479 149.507 904.704 153.333C907.229 154.671 912.016 154.584 914.193 152.998C917.82 150.351 916.412 146.176 913.554 143.063C912.263 141.667 910.609 140.605 909.057 139.339C920.489 130.408 940.323 138.35 947.069 160.402C945.038 159.69 943.761 157.624 941.918 156.664C931.661 151.311 918.037 156.839 916.021 166.963C915.049 171.807 915.89 176.549 920.605 178.309C923.536 179.414 928.28 179.036 930.747 177.276C935.056 174.192 933.968 169.479 931.11 165.377C930.877 165.043 930.892 164.548 930.66 163.603C939.292 162.759 944.051 165.61 948.346 173.887C953.206 183.269 951.131 199.561 943.558 208.71C942.673 205.132 942.296 201.743 941.019 198.746C938.262 192.302 933.112 188.724 926.162 187.837C920.896 187.167 916.427 188.695 913.351 193.175C910.377 197.495 910.203 201.961 913.714 206.092C916.906 209.83 921.302 210.674 925.089 207.969C927.628 206.15 928.875 202.514 930.718 199.677C942.542 207.038 937.987 230.443 922.68 245.091C922.042 241.178 922.187 236.886 920.547 233.454C918.328 228.799 915.411 224.028 911.581 220.711C907.054 216.784 898.959 219.169 895.767 224.202C892.952 228.639 893.794 234.37 897.711 237.439C902.629 241.294 906.474 240.363 911.683 234.108C911.9 233.846 912.452 233.89 912.858 233.788C916.311 244.669 915.614 252.698 914.309 258.051C912.814 264.175 910.696 266.139 906.184 277.441C904.254 282.285 901.193 289.937 899.931 296.09C898.625 302.374 897.638 314.593 906.213 331.684C903.079 318.113 904.298 307.363 905.531 301.123C907.519 290.984 911.363 283.522 915.353 275.9C920.214 266.59 924.9 261.237 928.672 255.04C938.132 239.432 948.868 224.377 956.427 207.881C967.149 184.433 966.249 160.766 949.245 139.849Z" fill="#D5CDC4"/>
    <path d="M132.167 159.748C127.669 167.283 126.088 174.701 132.602 181.334C137.419 186.251 143.194 186.178 150.114 181.814C144.369 193.524 129.222 195.386 119.951 188.04C107.329 178.032 106.734 158.89 119.327 144.721C120.705 152.256 123.215 158.671 132.167 159.748ZM202.026 139.849C186.951 121.317 167.278 114.436 143.701 118.349C121.242 122.073 102.033 140.736 99.4068 161.741C96.7373 183.153 111.246 202.165 131.282 203.547C146.545 204.594 161.01 193.321 162.461 179.269C163.897 165.363 156.904 157.74 142.207 155.558C140.176 151.064 139.407 145.74 136.752 144.489C133.821 143.121 129.135 145.507 123.941 146.496C125.087 143.601 125.45 138.903 127.945 136.997C138.275 129.099 150.259 127.281 164.333 129.419C161.112 131.324 159.066 132.241 157.354 133.579C150.433 138.932 150.259 149.507 157.485 153.333C160.009 154.671 164.797 154.584 166.973 152.998C170.6 150.351 169.193 146.176 166.335 143.063C165.044 141.667 163.39 140.605 161.837 139.339C173.27 130.408 193.103 138.35 199.85 160.402C197.818 159.69 196.542 157.624 194.699 156.664C184.441 151.311 170.818 156.839 168.801 166.963C167.829 171.807 168.671 176.549 173.386 178.309C176.317 179.414 181.061 179.036 183.527 177.276C187.836 174.192 186.748 169.479 183.89 165.377C183.658 165.043 183.672 164.548 183.44 163.603C192.073 162.759 196.832 165.61 201.126 173.887C205.987 183.269 203.912 199.561 196.338 208.71C195.453 205.132 195.076 201.743 193.799 198.746C191.043 192.302 185.892 188.724 178.943 187.837C173.676 187.167 169.207 188.695 166.132 193.175C163.157 197.495 162.983 201.961 166.494 206.092C169.686 209.83 174.082 210.674 177.869 207.969C180.408 206.15 181.656 202.514 183.498 199.677C195.323 207.038 190.767 230.443 175.461 245.091C174.822 241.178 174.967 236.886 173.328 233.454C171.108 228.799 168.192 224.028 164.362 220.711C159.835 216.784 151.739 219.169 148.547 224.202C145.733 228.639 146.574 234.37 150.491 237.439C155.41 241.294 159.255 240.363 164.463 234.108C164.681 233.846 165.232 233.89 165.638 233.788C169.091 244.669 168.395 252.698 167.089 258.051C165.595 264.175 163.477 266.139 158.964 277.441C157.035 282.285 153.973 289.937 152.711 296.09C151.405 302.374 150.419 314.593 158.993 331.684C155.86 318.113 157.078 307.363 158.312 301.123C160.299 290.984 164.144 283.522 168.134 275.9C172.994 266.59 177.68 261.237 181.453 255.04C190.912 239.432 201.649 224.377 209.208 207.881C219.929 184.433 219.03 160.766 202.026 139.849Z" fill="#D5CDC4"/>
    <path d="M660.253 84.0696C667.788 88.5672 675.207 90.1486 681.84 83.6343C686.756 78.8175 686.684 73.043 682.32 66.1225C694.03 71.8679 695.891 87.0148 688.546 96.2858C678.538 108.908 659.395 109.503 645.227 96.9096C652.762 95.5313 659.177 93.0214 660.253 84.0696ZM640.354 14.2109C621.822 29.2853 614.942 48.9589 618.855 72.5353C622.578 94.9945 641.241 114.204 662.246 116.83C683.658 119.499 702.67 104.991 704.052 84.9546C705.099 69.6916 693.826 55.2266 679.774 53.7757C665.868 52.3394 658.246 59.3325 656.064 74.0297C651.569 76.0608 646.245 76.8298 644.994 79.4849C643.627 82.4156 646.012 87.1019 647.002 92.2959C644.107 91.1497 639.408 90.7871 637.503 88.2916C629.604 77.9615 627.786 65.9774 629.924 51.9041C631.83 55.125 632.746 57.1707 634.085 58.8827C639.438 65.8033 650.013 65.9774 653.838 58.7521C655.177 56.2277 655.089 51.4398 653.504 49.2635C650.856 45.6364 646.682 47.0437 643.569 49.9019C642.172 51.1932 641.11 52.8472 639.845 54.3996C630.913 42.9668 638.856 23.1336 660.908 16.3871C660.195 18.4183 658.129 19.6951 657.169 21.5377C651.816 31.7953 657.344 45.4188 667.468 47.4355C672.312 48.4076 677.054 47.5661 678.814 42.8508C679.92 39.9201 679.542 35.1757 677.781 32.7093C674.698 28.4002 669.985 29.4884 665.883 32.3466C665.548 32.5787 665.053 32.5642 664.108 32.7964C663.264 24.1638 666.115 19.405 674.392 15.1104C683.774 10.2501 700.066 12.3248 709.216 19.8982C705.637 20.7833 702.248 21.1605 699.252 22.4372C692.808 25.1939 689.229 30.3444 688.342 37.294C687.673 42.5606 689.2 47.0292 693.68 50.1051C698.001 53.0793 702.466 53.2534 706.598 49.7423C710.336 46.5505 711.18 42.1544 708.474 38.3676C706.656 35.8286 703.019 34.5809 700.183 32.7383C707.543 20.9138 730.948 25.4695 745.596 40.7761C741.683 41.4144 737.392 41.2693 733.959 42.9088C729.304 45.1286 724.533 48.0448 721.217 51.8751C717.289 56.4018 719.675 64.4975 724.708 67.6894C729.144 70.5041 734.875 69.6626 737.945 65.7453C741.799 60.8269 740.868 56.9821 734.614 51.7735C734.352 51.5559 734.395 51.0046 734.294 50.5983C745.174 47.1453 753.204 47.8417 758.557 49.1475C764.681 50.6419 766.644 52.7601 777.947 57.2723C782.791 59.2019 790.442 62.2632 796.595 63.5255C802.879 64.8312 815.098 65.8178 832.19 57.2432C818.618 60.3771 807.868 59.1584 801.628 57.9251C791.489 55.9375 784.027 52.0927 776.405 48.1029C767.095 43.2425 761.742 38.5562 755.546 34.784C739.938 25.3244 724.882 14.5881 708.387 7.02916C684.938 -3.69266 661.271 -2.79316 640.354 14.2109Z" fill="#D5CDC4"/>
    <path d="M176.937 690.743C184.472 695.241 191.89 696.822 198.523 690.308C203.44 685.491 203.367 679.717 199.003 672.796C210.713 678.541 212.575 693.688 205.229 702.959C195.221 715.582 176.079 716.177 161.91 703.583C169.445 702.205 175.86 699.695 176.937 690.743ZM157.037 620.884C138.506 635.959 131.625 655.632 135.538 679.209C139.262 701.668 157.925 720.877 178.93 723.503C200.342 726.173 219.354 711.664 220.735 691.628C221.783 676.365 210.509 661.9 196.458 660.449C182.552 659.013 174.929 666.006 172.747 680.703C168.253 682.734 162.929 683.503 161.678 686.158C160.31 689.089 162.696 693.775 163.685 698.969C160.79 697.823 156.092 697.461 154.186 694.965C146.288 684.635 144.47 672.651 146.608 658.578C148.513 661.799 149.43 663.844 150.768 665.556C156.121 672.477 166.696 672.651 170.522 665.426C171.86 662.901 171.773 658.113 170.187 655.937C167.54 652.31 163.365 653.717 160.252 656.575C158.856 657.867 157.794 659.521 156.528 661.073C147.597 649.64 155.539 629.807 177.591 623.061C176.879 625.092 174.813 626.369 173.853 628.211C168.5 638.469 174.027 652.092 184.152 654.109C188.996 655.081 193.738 654.24 195.498 649.524C196.603 646.594 196.225 641.849 194.465 639.383C191.381 635.074 186.668 636.162 182.566 639.02C182.232 639.252 181.737 639.238 180.791 639.47C179.948 630.837 182.799 626.079 191.076 621.784C200.458 616.924 216.75 618.998 225.899 626.572C222.321 627.457 218.932 627.834 215.935 629.111C209.491 631.867 205.913 637.018 205.026 643.968C204.356 649.234 205.884 653.703 210.364 656.779C214.684 659.753 219.15 659.927 223.281 656.416C227.019 653.224 227.863 648.828 225.158 645.041C223.339 642.502 219.703 641.254 216.866 639.412C224.227 627.587 247.631 632.143 262.28 647.45C258.367 648.088 254.075 647.943 250.643 649.582C245.988 651.802 241.217 654.718 237.9 658.549C233.973 663.075 236.358 671.171 241.391 674.363C245.828 677.178 251.559 676.336 254.628 672.419C258.483 667.5 257.552 663.656 251.297 658.447C251.035 658.229 251.079 657.678 250.977 657.272C261.858 653.819 269.887 654.515 275.24 655.821C281.364 657.315 283.328 659.434 294.63 663.946C299.474 665.876 307.126 668.937 313.279 670.199C319.563 671.505 331.781 672.491 348.873 663.917C335.302 667.051 324.552 665.832 318.312 664.599C308.173 662.611 300.711 658.766 293.088 654.776C283.779 649.916 278.426 645.23 272.229 641.458C256.621 631.998 241.566 621.262 225.07 613.703C201.622 602.981 177.955 603.88 157.037 620.884Z" fill="#D5CDC4"/>
</svg>
