<svg width="24" height="24" viewBox="0 0 24 24" fill="none" xmlns="http://www.w3.org/2000/svg">
    <path fill-rule="evenodd" clip-rule="evenodd" d="M1.02472 1.02469C1.66376 0.38565 2.69985 0.38565 3.33889 1.02469L12 9.68579L20.6611 1.02469C21.3001 0.38565 22.3362 0.38565 22.9753 1.02469C23.6143 1.66373 23.6143 2.69982 22.9753 3.33886L14.3142 12L22.9753 20.6611C23.6143 21.3001 23.6143 22.3362 22.9753 22.9752C22.3362 23.6143 21.3001 23.6143 20.6611 22.9752L12 14.3141L3.33889 22.9752C2.69985 23.6143 1.66376 23.6143 1.02472 22.9752C0.385681 22.3362 0.385681 21.3001 1.02472 20.6611L9.68582 12L1.02472 3.33886C0.385681 2.69982 0.385681 1.66373 1.02472 1.02469Z" fill="#EDEDED"/>
</svg>
