<svg width="469" height="337" viewBox="0 0 469 337" fill="none" xmlns="http://www.w3.org/2000/svg">
    <path d="M65.6127 92.6763C68.1852 92.6763 69.3463 94.0777 68.8859 96.6501L49.1571 208.547C46.3644 224.382 49.4674 227.745 65.7129 227.745H99.7853C102.408 227.745 103.519 229.146 103.058 231.719L99.7353 250.577C99.2749 253.149 97.6733 254.551 95.0508 254.551H56.6542C21.4606 254.551 14.1537 239.837 18.8782 213.051L39.3977 96.6501C39.8482 94.0777 41.4998 92.6663 44.0822 92.6663H65.6127V92.6763Z" fill="white"/>
    <path d="M220.801 92.6763C223.373 92.6763 224.534 94.0777 224.074 96.6501L220.75 115.508C220.3 118.081 218.689 119.482 216.076 119.482H186.788C167.53 119.482 162.825 121.764 159.832 138.74L156.569 157.228C156.409 158.109 157.11 158.95 157.991 158.95H197.959C200.531 158.95 201.692 160.351 201.232 162.923L197.909 181.781C197.458 184.354 195.807 185.755 193.224 185.755H153.256C152.375 185.755 151.354 186.786 151.204 187.617L147.521 208.487C144.528 225.463 148.432 227.745 167.69 227.745H196.978C199.6 227.745 200.711 229.146 200.251 231.719L196.928 250.577C196.477 253.149 194.866 254.551 192.253 254.551H159.202C121.035 254.551 112.257 241.258 117.542 211.309L130.835 135.918C136.12 105.969 149.583 92.6763 182.204 92.6763H220.801V92.6763Z" fill="white"/>
    <path d="M338.503 92.6363C341.075 92.6363 342.236 94.0376 341.776 96.6101L338.483 115.278C338.032 117.85 336.381 119.262 333.798 119.262H302.198C301.317 119.262 300.176 119.912 299.986 120.983L277.144 250.587C276.694 253.159 275.042 254.571 272.46 254.571H251.12C248.547 254.571 247.386 253.169 247.846 250.587L270.698 120.983C270.888 119.912 270.158 119.262 269.277 119.262H237.296C234.724 119.262 233.563 117.86 234.023 115.278L237.316 96.6101C237.767 94.0376 239.418 92.6363 241.991 92.6363H338.503V92.6363Z" fill="white"/>
    <path d="M465.664 92.9065C468.137 93.5672 469.688 94.9585 468.697 98.4218L463.442 117.57C462.962 119.202 461.771 120.423 459.528 120.423C456.966 120.423 438.989 118.441 425.786 118.441C406.868 118.441 402.304 124.337 402.304 136.548C402.304 147.098 412.153 151.593 427.518 160.561C447.747 172.382 455.525 180.81 455.525 198.257C455.525 230.137 447.657 256.753 394.106 256.753C383.025 256.753 365.419 254.511 359.693 252.609C355.449 251.167 354.748 248.675 356.19 243.67L360.754 228.466C361.265 226.644 362.466 225.423 364.708 225.423C367.811 225.423 380.513 228.826 395.678 228.826C417.969 228.826 425.166 221.479 425.166 205.844C425.166 195.965 418.669 190.51 401.893 181.091C381.964 169.9 372.275 159.75 372.275 140.782C372.275 113.586 381.374 90.5143 428.229 90.5143C440.981 90.4942 459.428 91.2049 465.664 92.9065Z" fill="white"/>
    <path d="M387.309 15.5227C376.909 2.77058 363.336 -1.96394 347.071 0.72863C331.576 3.29107 318.324 16.1233 316.512 30.5871C314.67 45.3212 324.68 58.4036 338.503 59.3545C349.023 60.0752 359.012 52.3178 360.013 42.6386C361.004 33.0695 356.18 27.8245 346.04 26.323C344.639 23.2301 344.108 19.5666 342.276 18.7058C340.254 17.7649 337.021 19.4064 333.428 20.0871C334.219 18.0952 334.469 14.8621 336.191 13.5509C343.317 8.11568 351.575 6.86449 361.295 8.33589C359.072 9.64714 357.661 10.2777 356.48 11.1986C351.705 14.8821 351.585 22.1591 356.57 24.7916C358.312 25.7125 361.615 25.6524 363.126 24.5614C365.629 22.7396 364.658 19.8669 362.676 17.7248C361.785 16.7639 360.644 16.0332 359.573 15.1624C367.46 9.01654 381.143 14.4817 385.798 29.6662C384.397 29.1758 383.516 27.7544 382.245 27.0938C375.168 23.4103 365.769 27.2139 364.377 34.1805C363.707 37.5137 364.287 40.7768 367.54 41.988C369.562 42.7387 372.826 42.4885 374.537 41.2673C377.51 39.1453 376.769 35.9022 374.787 33.0795C374.627 32.8493 374.637 32.5089 374.477 31.8583C380.443 31.2778 383.716 33.2396 386.679 38.9351C390.032 45.3912 388.601 56.6019 383.376 62.8979C382.765 60.4356 382.505 58.1034 381.624 56.0414C379.722 51.6072 376.169 49.1448 371.374 48.5342C367.741 48.0638 364.658 49.1248 362.536 52.2077C360.484 55.1806 360.354 58.2535 362.786 61.0962C364.988 63.6687 368.021 64.2492 370.633 62.3874C372.385 61.1362 373.246 58.6339 374.517 56.682C382.675 61.7468 379.532 77.8522 368.972 87.9318C368.531 85.2392 368.632 82.2864 367.5 79.9242C365.969 76.7211 363.957 73.438 361.315 71.1558C358.192 68.4532 352.606 70.0948 350.404 73.5581C348.462 76.611 349.043 80.5548 351.745 82.6668C355.139 85.3193 357.791 84.6787 361.385 80.3746C361.535 80.1944 361.915 80.2244 362.195 80.1544C364.578 87.6415 364.097 93.1668 363.196 96.8503C362.165 101.064 360.704 102.416 357.591 110.193C356.26 113.526 354.148 118.791 353.277 123.025C352.376 127.359 351.695 135.757 357.611 147.519C355.449 138.18 356.29 130.783 357.141 126.489C358.512 119.512 361.164 114.377 363.917 109.132C367.27 102.726 370.503 99.0424 373.106 94.7783C379.632 84.0381 387.039 73.6782 392.254 62.3274C399.661 46.202 399.041 29.9165 387.309 15.5227ZM339.113 29.2158C336.01 34.4007 334.919 39.5056 339.404 44.07C342.727 47.4532 346.711 47.4031 351.485 44.4003C347.521 52.468 337.071 53.7392 330.675 48.6844C321.967 41.8078 321.557 28.6252 330.245 18.8759C331.216 24.0609 332.937 28.4751 339.113 29.2158Z" fill="#4D97D4"/>
    <path d="M28.9576 291.416C29.6783 291.596 29.9686 292.076 29.7484 292.837L28.6573 296.761C28.5572 297.111 28.2369 297.402 27.8165 297.402C27.1459 297.402 24.2031 296.801 21.1502 296.801C13.9133 296.801 10.7903 298.743 8.13777 313.267C7.38705 317.321 6.99668 320.393 6.99668 322.806C6.99668 328.862 9.52909 330.063 14.8842 330.063C18.7279 330.063 21.0601 329.312 22.041 329.312C22.4514 329.312 22.6716 329.602 22.6316 330.033L22.4814 333.036C22.4314 334.026 21.9609 334.627 21 335.037C19.7588 335.548 17.5968 336.058 12.6321 336.058C3.54338 336.058 0 332.065 0 323.697C0 320.884 0.430415 317.461 1.20115 313.277C4.17399 296.941 8.78839 290.665 20.7598 290.665C25.0939 290.645 27.6564 291.056 28.9576 291.416Z" fill="white"/>
    <path d="M70.3472 301.766C70.3472 304.849 69.8667 308.652 69.046 313.257C66.2533 329.072 62.9802 336.038 50.238 336.038C41.1293 336.038 38.0964 332.475 38.0964 324.818C38.0964 321.695 38.6169 317.871 39.4277 313.257C42.2104 297.482 45.4535 290.725 58.2256 290.725C67.3243 290.725 70.3472 294.178 70.3472 301.766ZM57.1146 297.041C50.7185 297.041 48.7366 299.514 46.2943 313.327C45.5135 317.761 45.1031 321.034 45.1031 323.436C45.1031 328.551 47.0049 329.692 51.3591 329.692C57.545 329.692 59.657 327.22 62.0993 313.327C62.8601 309.003 63.2805 305.78 63.2805 303.397C63.2905 298.192 61.3586 297.041 57.1146 297.041Z" fill="white"/>
    <path d="M117.702 291.296C119.033 291.296 119.704 292.117 119.434 293.648L112.187 334.757C112.107 335.188 111.766 335.478 111.336 335.478H106.041C105.651 335.478 105.41 335.188 105.491 334.757L110.455 306.6C110.515 306.25 110.345 306.2 110.125 306.5L101.727 317.261C101.016 318.181 100.085 318.622 99.1445 318.622C98.1935 318.622 97.4228 318.181 97.0324 317.261L92.428 306.5C92.3079 306.2 92.1177 306.25 92.0577 306.6L87.093 334.757C87.0129 335.188 86.6726 335.478 86.2822 335.478H80.9871C80.5567 335.478 80.3165 335.188 80.3866 334.757L87.6335 293.648C87.9037 292.117 88.8646 291.296 90.1959 291.296H91.2069C92.368 291.296 92.8484 291.756 93.1788 292.527L100.145 308.742C100.386 309.313 100.456 309.433 100.756 309.433C101.066 309.433 101.166 309.313 101.617 308.742L114.299 292.527C114.909 291.756 115.54 291.296 116.701 291.296H117.702Z" fill="white"/>
    <path d="M165.988 291.296C167.32 291.296 167.99 292.117 167.72 293.648L160.473 334.757C160.393 335.188 160.053 335.478 159.622 335.478H154.327C153.937 335.478 153.697 335.188 153.767 334.757L158.731 306.6C158.791 306.25 158.621 306.2 158.401 306.5L150.003 317.261C149.292 318.181 148.362 318.622 147.421 318.622C146.48 318.622 145.699 318.181 145.309 317.261L140.704 306.5C140.584 306.2 140.394 306.25 140.334 306.6L135.369 334.757C135.289 335.188 134.949 335.478 134.558 335.478H129.263C128.833 335.478 128.593 335.188 128.673 334.757L135.92 293.648C136.19 292.117 137.151 291.296 138.482 291.296H139.483C140.654 291.296 141.125 291.756 141.455 292.527L148.422 308.742C148.662 309.313 148.732 309.433 149.032 309.433C149.332 309.433 149.443 309.313 149.893 308.742L162.575 292.527C163.186 291.756 163.816 291.296 164.977 291.296H165.988Z" fill="white"/>
    <path d="M211.321 291.296C211.672 291.296 211.952 291.586 211.872 292.016L206.467 322.706C204.955 331.274 202.093 335.878 190.522 335.878C178.961 335.878 177.729 331.274 179.241 322.706L184.656 292.016C184.736 291.586 185.076 291.296 185.467 291.296H190.682C191.112 291.296 191.392 291.586 191.312 292.016L185.877 322.816C184.936 328.141 185.857 329.812 191.583 329.812C197.228 329.812 198.8 328.141 199.73 322.816L205.166 292.016C205.246 291.586 205.586 291.296 206.016 291.296H211.321Z" fill="white"/>
    <path d="M255.284 291.296C255.634 291.296 255.914 291.586 255.844 291.976L248.587 333.126C248.317 334.657 247.356 335.478 245.825 335.478H243.763C243.202 335.478 242.902 335.288 242.772 334.907L232.852 306.62C232.692 306.25 232.392 306.33 232.312 306.74L227.387 334.797C227.317 335.188 226.937 335.478 226.586 335.478H221.251C220.861 335.478 220.621 335.188 220.691 334.797L227.947 293.648C228.218 292.117 229.179 291.296 230.71 291.296H233.102C233.793 291.296 234.063 291.486 234.304 292.026L243.763 319.573C243.883 319.943 244.263 319.863 244.343 319.453L249.198 291.986C249.268 291.596 249.608 291.306 249.958 291.306H255.284V291.296Z" fill="white"/>
    <path d="M278.175 291.296C278.776 291.296 279.046 291.626 278.936 292.217L271.469 334.547C271.369 335.148 270.978 335.468 270.378 335.468H265.403C264.803 335.468 264.532 335.138 264.642 334.547L272.11 292.217C272.22 291.616 272.6 291.296 273.201 291.296H278.175Z" fill="white"/>
    <path d="M318.093 291.416C318.814 291.596 319.104 292.076 318.884 292.837L317.793 296.761C317.693 297.111 317.373 297.402 316.952 297.402C316.282 297.402 313.339 296.801 310.286 296.801C303.049 296.801 299.926 298.743 297.273 313.267C296.523 317.321 296.132 320.393 296.132 322.806C296.132 328.862 298.665 330.063 304.02 330.063C307.864 330.063 310.196 329.312 311.177 329.312C311.597 329.312 311.807 329.602 311.767 330.033L311.617 333.036C311.567 334.026 311.097 334.627 310.136 335.037C308.895 335.548 306.733 336.058 301.768 336.058C292.679 336.058 289.136 332.065 289.136 323.697C289.136 320.884 289.566 317.461 290.337 313.277C293.31 296.941 297.924 290.665 309.896 290.665C314.22 290.645 316.782 291.056 318.093 291.416Z" fill="white"/>
    <path d="M398.08 291.266C398.68 291.266 398.95 291.596 398.84 292.187L398.1 296.401C398 297.001 397.609 297.331 397.009 297.331H387.94C387.71 297.331 387.429 297.502 387.389 297.772L380.903 334.547C380.803 335.148 380.413 335.468 379.812 335.468H375.008C374.407 335.468 374.137 335.138 374.247 334.547L380.733 297.772C380.783 297.502 380.603 297.331 380.373 297.331H371.224C370.623 297.331 370.353 297.001 370.463 296.401L371.204 292.187C371.304 291.586 371.694 291.266 372.295 291.266H398.08Z" fill="white"/>
    <path d="M433.854 291.296C434.445 291.296 434.725 291.626 434.615 292.217L433.864 296.471C433.764 297.071 433.394 297.402 432.773 297.402H424.335C418.659 297.402 417.378 298.132 416.477 303.247L415.386 309.433C415.346 309.663 415.516 309.874 415.747 309.874H427.908C428.509 309.874 428.779 310.204 428.669 310.794L427.918 315.048C427.808 315.649 427.428 315.979 426.827 315.979H414.666C414.435 315.979 414.185 316.23 414.145 316.43L412.894 323.516C411.993 328.631 413.014 329.362 418.689 329.362H427.128C427.748 329.362 427.998 329.692 427.888 330.283L427.138 334.547C427.027 335.148 426.667 335.468 426.046 335.468H416.798C406.898 335.468 404.656 332.215 406.057 324.297L409.911 302.456C411.312 294.539 414.696 291.286 423.374 291.286H433.854V291.296Z" fill="white"/>
    <path d="M346.671 290.725C336.241 290.725 332.947 296.471 330.575 309.693L326.191 334.547C326.081 335.148 326.361 335.478 326.952 335.478H331.806C332.367 335.478 332.737 335.178 332.867 334.637C332.877 334.607 332.887 334.587 332.897 334.547L334.699 324.347C334.739 324.107 334.879 323.987 335.049 323.907C335.13 323.867 335.21 323.827 335.31 323.827H346.811C347.001 323.827 347.111 323.907 347.181 324.037C347.221 324.117 347.261 324.207 347.241 324.347L345.439 334.547C345.399 334.787 345.429 334.977 345.509 335.127C345.62 335.348 345.85 335.478 346.2 335.478H351.045C351.645 335.478 352.026 335.148 352.136 334.547L354.478 321.254C355.008 318.892 355.479 316.229 355.939 313.257C356.039 312.636 356.12 312.056 356.2 311.465C356.29 310.864 356.38 310.264 356.45 309.693C356.85 306.66 357.08 304.018 357.08 301.766C357.08 294.178 354.178 290.725 346.671 290.725ZM348.482 317.2C348.432 317.511 348.182 317.721 347.872 317.721H336.371C336.06 317.721 335.89 317.511 335.94 317.2L337.262 309.693H337.232C339.334 299.053 340.545 297.041 345.67 297.041C348.763 297.041 350.294 298.192 350.294 303.397C350.294 305.129 350.094 307.321 349.723 310.054L348.482 317.2Z" fill="white"/>
</svg>
