<svg width="1033" height="195" viewBox="0 0 1033 195" fill="none" xmlns="http://www.w3.org/2000/svg">
<path d="M58.1076 66.3887C59.1704 66.3887 59.6501 66.9691 59.4599 68.0388L51.309 114.389C50.1552 120.948 51.4413 122.341 58.149 122.341H72.2259C73.3094 122.341 73.7685 122.922 73.5782 123.991L72.2053 131.803C72.015 132.868 71.3534 133.449 70.2699 133.449H54.4064C39.8663 133.449 36.8474 127.354 38.7994 116.259L47.277 68.0388C47.4672 66.9733 48.1454 66.3887 49.2123 66.3887H58.1076V66.3887Z" fill="white"/>
<path d="M122.223 66.3887C123.286 66.3887 123.766 66.9691 123.575 68.0388L122.203 75.8502C122.016 76.9158 121.351 77.4962 120.271 77.4962H108.171C100.214 77.4962 98.2709 78.4416 97.0344 85.4734L95.6862 93.1314C95.6242 93.4963 95.9095 93.8445 96.2735 93.8445H112.786C113.849 93.8445 114.329 94.425 114.138 95.4906L112.765 103.302C112.579 104.368 111.897 104.948 110.83 104.948H94.3174C93.9535 104.948 93.5317 105.375 93.4696 105.719L91.9478 114.364C90.7113 121.396 92.3241 122.341 100.281 122.341H112.381C113.464 122.341 113.923 122.922 113.733 123.991L112.36 131.803C112.174 132.868 111.508 133.449 110.429 133.449H96.7738C81.0055 133.449 77.3787 127.943 79.5622 115.537L85.0541 84.3084C87.2376 71.9031 92.7997 66.397 106.277 66.397H122.223V66.3887Z" fill="white"/>
<path d="M170.852 66.3713C171.914 66.3713 172.394 66.9518 172.204 68.0215L170.843 75.7541C170.657 76.8197 169.975 77.4043 168.908 77.4043H155.852C155.488 77.4043 155.017 77.6738 154.938 78.1174L145.497 131.798C145.311 132.863 144.629 133.448 143.562 133.448H134.745C133.682 133.448 133.203 132.867 133.393 131.798L142.834 78.1133C142.913 77.6696 142.611 77.4001 142.247 77.4001H129.038C127.971 77.4001 127.496 76.8197 127.682 75.7499L129.042 68.0174C129.229 66.9518 129.911 66.3672 130.974 66.3672H170.852V66.3713Z" fill="white"/>
<path d="M223.388 66.4839C224.409 66.7575 225.05 67.3339 224.641 68.7684L222.47 76.7C222.275 77.3759 221.779 77.8817 220.853 77.8817C219.794 77.8817 212.367 77.0607 206.912 77.0607C199.096 77.0607 197.211 79.5028 197.211 84.5611C197.211 88.9312 201.28 90.7928 207.628 94.5078C215.985 99.4044 219.195 102.895 219.195 110.122C219.195 123.328 215.944 134.352 193.82 134.352C189.242 134.352 181.968 133.424 179.602 132.632C177.849 132.035 177.559 131.002 178.155 128.929L180.04 122.631C180.251 121.877 180.748 121.371 181.674 121.371C182.956 121.371 188.204 122.78 194.469 122.78C203.678 122.78 206.648 119.737 206.648 113.261C206.648 109.169 203.964 106.909 197.037 103.007C188.803 98.372 184.8 94.1678 184.8 86.3108C184.8 75.0416 188.559 65.4888 207.917 65.4888C213.186 65.4847 220.811 65.779 223.388 66.4839Z" fill="white"/>
<path d="M171.104 40.1018C169.822 42.2495 169.371 44.364 171.228 46.2547C172.601 47.6561 174.247 47.6354 176.219 46.3915C174.582 49.7292 170.264 50.2599 167.622 48.1661C164.024 45.3135 163.855 39.8572 167.444 35.8188C167.837 37.9665 168.552 39.795 171.104 40.1018ZM191.016 34.4298C186.719 29.1476 181.112 27.1865 174.392 28.3018C167.99 29.3632 162.515 34.6828 161.766 40.6698C161.005 46.773 165.141 52.192 170.852 52.5859C175.202 52.8844 179.325 49.6711 179.739 45.6659C180.148 41.7022 178.155 39.5296 173.966 38.9077C173.387 37.6265 173.167 36.109 172.411 35.7525C171.575 35.3627 170.24 36.0427 168.759 36.3246C169.086 35.4995 169.189 34.1603 169.901 33.6172C172.845 31.3658 176.261 30.8476 180.272 31.457C179.354 32.0002 178.771 32.2614 178.283 32.6428C176.31 34.1686 176.261 37.1829 178.32 38.2733C179.04 38.6548 180.404 38.6299 181.025 38.178C182.059 37.4234 181.658 36.2334 180.843 35.3461C180.475 34.9481 180.003 34.6454 179.561 34.2847C182.82 31.739 188.473 34.0028 190.396 40.2884C189.817 40.0852 189.453 39.4964 188.928 39.2228C186.004 37.697 182.121 39.2726 181.546 42.1583C181.269 43.539 181.509 44.8906 182.853 45.3923C183.688 45.7074 185.04 45.5996 185.743 45.0979C186.972 44.2189 186.661 42.8756 185.847 41.7063C185.781 41.611 185.785 41.47 185.718 41.2005C188.179 40.96 189.535 41.7727 190.76 44.1319C192.145 46.8061 191.554 51.4498 189.395 54.0578C189.143 53.0378 189.035 52.0717 188.671 51.2176C187.885 49.3809 186.417 48.3609 184.437 48.108C182.935 47.9173 181.662 48.3526 180.785 49.6297C179.937 50.8611 179.888 52.1339 180.888 53.3115C181.798 54.377 183.051 54.6175 184.13 53.8463C184.854 53.328 185.21 52.2915 185.735 51.483C189.105 53.581 187.807 60.2521 183.444 64.4273C183.262 63.312 183.303 62.0889 182.836 61.1104C182.203 59.7836 181.372 58.4237 180.28 57.4783C178.99 56.3589 176.683 57.0388 175.773 58.4734C174.971 59.738 175.21 61.3716 176.327 62.2464C177.729 63.3452 178.825 63.0798 180.309 61.297C180.371 61.2223 180.529 61.2348 180.644 61.2057C181.629 64.3071 181.43 66.5957 181.058 68.1215C180.632 69.8671 180.028 70.4268 178.742 73.6484C178.192 75.029 177.319 77.2099 176.96 78.9637C176.587 80.7549 176.306 84.2377 178.75 89.1094C177.857 85.241 178.204 82.177 178.556 80.3983C179.122 77.5084 180.218 75.3815 181.356 73.2089C182.741 70.5553 184.077 69.0295 185.152 67.2633C187.848 62.8144 190.908 58.5232 193.063 53.8214C196.119 47.1378 195.863 40.392 191.016 34.4298Z" fill="white"/>
<path d="M42.9638 148.711C43.2615 148.785 43.3815 148.984 43.2905 149.299L42.8397 150.925C42.7984 151.07 42.666 151.19 42.4923 151.19C42.2153 151.19 40.9995 150.941 39.7382 150.941C36.7482 150.941 35.458 151.746 34.3621 157.762C34.0519 159.441 33.8907 160.714 33.8907 161.713C33.8907 164.217 34.9369 164.719 37.1494 164.719C38.7374 164.719 39.7009 164.408 40.1062 164.408C40.2758 164.408 40.3667 164.528 40.3502 164.707L40.2882 165.95C40.2675 166.361 40.0731 166.61 39.6761 166.78C39.1633 166.995 38.2701 167.203 36.2189 167.203C32.4639 167.203 31 165.548 31 162.082C31 160.917 31.1778 159.499 31.4962 157.766C32.7245 150.999 34.6309 148.4 39.5769 148.4C41.3675 148.391 42.4262 148.561 42.9638 148.711Z" fill="white"/>
<path d="M54.5967 151.036C51.9541 151.036 51.1353 152.061 50.1263 157.782C49.8037 159.619 49.6342 160.975 49.6342 161.97C49.6342 164.089 50.4199 164.561 52.2188 164.561C54.7745 164.561 55.6471 163.533 56.6561 157.782C56.9704 155.991 57.1441 154.656 57.1441 153.669C57.1441 151.517 56.3501 151.041 54.5967 151.036ZM60.0637 152.998C60.0637 154.275 59.8652 155.854 59.5261 157.757C58.3723 164.308 57.02 167.194 51.7556 167.194C47.9924 167.194 46.7394 165.722 46.7394 162.546C46.7394 161.257 46.9544 159.669 47.2894 157.757C48.439 151.223 49.7789 148.424 55.0557 148.424C58.8148 148.424 60.0637 149.855 60.0637 152.998Z" fill="white"/>
<path d="M79.6284 148.661C80.1784 148.661 80.4555 149.001 80.3438 149.635L77.3498 166.664C77.3167 166.842 77.1761 166.962 76.9983 166.962H74.8106C74.6494 166.962 74.5501 166.842 74.5832 166.664L76.6344 155.001C76.6592 154.855 76.5889 154.835 76.4979 154.959L73.0283 159.416C72.7347 159.798 72.3501 159.98 71.9613 159.98C71.5685 159.98 71.25 159.798 71.0929 159.416L69.1906 154.959C69.141 154.835 69.0624 154.855 69.0376 155.001L66.9864 166.664C66.9533 166.842 66.8169 166.962 66.6515 166.962H64.4638C64.286 166.962 64.1868 166.842 64.2157 166.664L67.2097 149.635C67.3214 149.001 67.7184 148.661 68.2684 148.661H68.6861C69.1658 148.661 69.3643 148.852 69.5008 149.171L72.379 155.888C72.4783 156.124 72.5072 156.174 72.6313 156.174C72.7595 156.174 72.8008 156.124 72.9869 155.888L78.2265 149.171C78.4788 148.852 78.7393 148.661 79.219 148.661H79.6284Z" fill="white"/>
<path d="M99.5776 148.661C100.128 148.661 100.405 149.001 100.293 149.635L97.299 166.664C97.2659 166.842 97.1294 166.962 96.9475 166.962H94.7599C94.5986 166.962 94.4993 166.842 94.5283 166.664L96.5794 155.001C96.6042 154.855 96.5339 154.835 96.443 154.959L92.9734 159.416C92.6797 159.798 92.2951 159.98 91.9023 159.98C91.5094 159.98 91.191 159.798 91.0338 159.416L89.1316 154.959C89.0819 154.835 89.0034 154.855 88.9785 155.001L86.9274 166.664C86.8943 166.842 86.7578 166.962 86.5924 166.962H84.4048C84.2269 166.962 84.1277 166.842 84.1566 166.664L87.1507 149.635C87.2623 149.001 87.6593 148.661 88.2094 148.661H88.627C89.1067 148.661 89.3052 148.852 89.4417 149.171L92.32 155.888C92.4192 156.124 92.4482 156.174 92.5722 156.174C92.6963 156.174 92.7418 156.124 92.9279 155.888L98.1674 149.171C98.4197 148.852 98.6802 148.661 99.1599 148.661H99.5776Z" fill="white"/>
<path d="M118.307 148.661C118.452 148.661 118.567 148.781 118.534 148.96L116.297 161.672C115.673 165.221 114.49 167.128 109.709 167.128C104.933 167.128 104.424 165.221 105.049 161.672L107.286 148.96C107.319 148.781 107.46 148.661 107.621 148.661H109.776C109.953 148.661 110.069 148.781 110.036 148.96L107.795 161.717C107.406 163.923 107.786 164.616 110.152 164.616C112.484 164.616 113.134 163.923 113.522 161.717L115.768 148.96C115.801 148.781 115.941 148.661 116.119 148.661H118.307Z" fill="white"/>
<path d="M136.47 148.661C136.614 148.661 136.73 148.781 136.701 148.943L133.703 165.988C133.591 166.622 133.194 166.962 132.562 166.962H131.71C131.478 166.962 131.354 166.884 131.305 166.726L127.206 155.009C127.14 154.855 127.016 154.889 126.987 155.059L124.953 166.68C124.924 166.842 124.766 166.962 124.622 166.962H122.418C122.256 166.962 122.157 166.842 122.186 166.68L125.184 149.635C125.296 149.001 125.693 148.661 126.326 148.661H127.314C127.599 148.661 127.711 148.74 127.81 148.964L131.718 160.374C131.768 160.527 131.925 160.494 131.958 160.324L133.964 148.947C133.993 148.786 134.133 148.665 134.278 148.665H136.47V148.661Z" fill="white"/>
<path d="M145.927 148.661C146.176 148.661 146.287 148.798 146.242 149.043L143.157 166.577C143.111 166.825 142.954 166.958 142.706 166.958H140.651C140.403 166.958 140.291 166.821 140.336 166.577L143.421 149.043C143.467 148.794 143.624 148.661 143.872 148.661H145.927Z" fill="white"/>
<path d="M162.415 148.711C162.713 148.785 162.833 148.984 162.742 149.299L162.291 150.925C162.25 151.07 162.118 151.19 161.944 151.19C161.667 151.19 160.451 150.941 159.19 150.941C156.2 150.941 154.91 151.746 153.814 157.762C153.504 159.441 153.342 160.714 153.342 161.713C153.342 164.217 154.388 164.719 156.601 164.719C158.189 164.719 159.152 164.408 159.558 164.408C159.731 164.408 159.814 164.528 159.802 164.707L159.74 165.95C159.719 166.361 159.525 166.61 159.128 166.78C158.615 166.995 157.722 167.203 155.67 167.203C151.92 167.203 150.452 165.548 150.452 162.082C150.452 160.917 150.629 159.499 150.948 157.766C152.176 150.999 154.082 148.4 159.028 148.4C160.819 148.391 161.878 148.561 162.415 148.711Z" fill="white"/>
<path d="M195.461 148.649C195.71 148.649 195.821 148.786 195.776 149.03L195.47 150.776C195.428 151.021 195.267 151.161 195.019 151.161H191.272C191.177 151.161 191.061 151.232 191.045 151.344L188.365 166.577C188.324 166.826 188.162 166.958 187.914 166.958H185.925C185.677 166.958 185.565 166.822 185.611 166.577L188.291 151.344C188.311 151.232 188.237 151.161 188.142 151.161H184.362C184.114 151.161 184.002 151.025 184.048 150.776L184.354 149.03C184.395 148.782 184.556 148.649 184.804 148.649H195.461Z" fill="white"/>
<path d="M210.241 148.661C210.485 148.661 210.601 148.797 210.556 149.042L210.246 150.804C210.204 151.053 210.051 151.19 209.795 151.19H206.309C203.964 151.19 203.435 151.492 203.062 153.611L202.612 156.173C202.595 156.269 202.665 156.356 202.76 156.356H207.785C208.033 156.356 208.145 156.493 208.099 156.737L207.789 158.499C207.744 158.744 207.586 158.881 207.338 158.881H202.314C202.219 158.881 202.115 158.985 202.099 159.068L201.582 162.003C201.21 164.122 201.632 164.424 203.976 164.424H207.462C207.719 164.424 207.822 164.561 207.777 164.806L207.467 166.572C207.421 166.821 207.272 166.953 207.016 166.953H203.195C199.105 166.953 198.178 165.606 198.757 162.326L200.35 153.279C200.928 150 202.326 148.652 205.912 148.652H210.241V148.661Z" fill="white"/>
<path d="M174.975 159.391C174.954 159.519 174.851 159.607 174.722 159.607H169.971C169.843 159.607 169.772 159.519 169.793 159.391L170.339 156.281H170.326C171.191 151.874 171.695 151.041 173.813 151.041C175.09 151.041 175.723 151.517 175.723 153.673C175.723 154.391 175.64 155.299 175.487 156.431L174.975 159.391ZM174.226 148.424C169.917 148.424 168.556 150.804 167.576 156.281L165.765 166.576C165.724 166.825 165.835 166.958 166.079 166.958H168.085C168.317 166.958 168.47 166.833 168.523 166.609C168.527 166.597 168.532 166.589 168.536 166.576L169.28 162.351C169.297 162.252 169.355 162.202 169.425 162.169C169.458 162.152 169.491 162.136 169.532 162.136H174.284C174.363 162.136 174.408 162.169 174.437 162.223C174.454 162.256 174.47 162.293 174.462 162.351L173.722 166.576C173.705 166.676 173.717 166.755 173.751 166.813C173.796 166.904 173.891 166.958 174.036 166.958H176.037C176.286 166.958 176.443 166.821 176.488 166.576L177.456 161.07C177.675 160.092 177.869 158.989 178.06 157.757C178.101 157.5 178.13 157.26 178.167 157.015C178.204 156.766 178.242 156.518 178.271 156.281C178.436 155.025 178.531 153.93 178.531 152.998C178.527 149.855 177.324 148.424 174.226 148.424Z" fill="white"/>
<path d="M576.108 66.3887C577.17 66.3887 577.65 66.9691 577.46 68.0388L569.309 114.389C568.155 120.948 569.441 122.341 576.149 122.341H590.226C591.309 122.341 591.768 122.922 591.578 123.991L590.205 131.803C590.015 132.868 589.353 133.449 588.27 133.449H572.406C557.866 133.449 554.847 127.354 556.799 116.259L565.277 68.0388C565.467 66.9733 566.145 66.3887 567.212 66.3887H576.108V66.3887Z" fill="white"/>
<path d="M640.223 66.3887C641.286 66.3887 641.766 66.9691 641.575 68.0388L640.202 75.8502C640.016 76.9158 639.351 77.4962 638.271 77.4962H626.171C618.214 77.4962 616.271 78.4416 615.034 85.4734L613.686 93.1314C613.624 93.4963 613.91 93.8445 614.273 93.8445H630.786C631.849 93.8445 632.329 94.425 632.138 95.4906L630.765 103.302C630.579 104.368 629.897 104.948 628.83 104.948H612.317C611.953 104.948 611.532 105.375 611.47 105.719L609.948 114.364C608.711 121.396 610.324 122.341 618.281 122.341H630.381C631.464 122.341 631.923 122.922 631.733 123.991L630.36 131.803C630.174 132.868 629.508 133.449 628.429 133.449H614.774C599.005 133.449 595.379 127.943 597.562 115.537L603.054 84.3084C605.238 71.9031 610.8 66.397 624.277 66.397H640.223V66.3887Z" fill="white"/>
<path d="M688.852 66.3713C689.914 66.3713 690.394 66.9518 690.204 68.0215L688.843 75.7541C688.657 76.8197 687.975 77.4043 686.908 77.4043H673.852C673.488 77.4043 673.017 77.6738 672.938 78.1174L663.497 131.798C663.311 132.863 662.629 133.448 661.562 133.448H652.745C651.682 133.448 651.203 132.867 651.393 131.798L660.834 78.1133C660.913 77.6696 660.611 77.4001 660.247 77.4001H647.038C645.971 77.4001 645.496 76.8197 645.682 75.7499L647.042 68.0174C647.229 66.9518 647.911 66.3672 648.974 66.3672H688.852V66.3713Z" fill="white"/>
<path d="M741.388 66.4839C742.409 66.7575 743.05 67.3339 742.641 68.7684L740.47 76.7C740.275 77.3759 739.779 77.8817 738.853 77.8817C737.794 77.8817 730.367 77.0607 724.912 77.0607C717.096 77.0607 715.211 79.5028 715.211 84.5611C715.211 88.9312 719.28 90.7928 725.628 94.5078C733.985 99.4044 737.195 102.895 737.195 110.122C737.195 123.328 733.944 134.352 711.82 134.352C707.242 134.352 699.968 133.424 697.602 132.632C695.849 132.035 695.559 131.002 696.155 128.929L698.04 122.631C698.251 121.877 698.748 121.371 699.674 121.371C700.956 121.371 706.204 122.78 712.469 122.78C721.678 122.78 724.648 119.737 724.648 113.261C724.648 109.169 721.964 106.909 715.037 103.007C706.803 98.372 702.8 94.1678 702.8 86.3108C702.8 75.0416 706.559 65.4888 725.917 65.4888C731.186 65.4847 738.811 65.779 741.388 66.4839Z" fill="white"/>
<path d="M689.104 40.1018C687.822 42.2495 687.371 44.364 689.228 46.2547C690.601 47.6561 692.247 47.6354 694.219 46.3915C692.582 49.7292 688.264 50.2599 685.622 48.1661C682.024 45.3135 681.855 39.8572 685.444 35.8188C685.837 37.9665 686.552 39.795 689.104 40.1018ZM709.016 34.4298C704.719 29.1476 699.112 27.1865 692.392 28.3018C685.99 29.3632 680.515 34.6828 679.766 40.6698C679.005 46.773 683.141 52.192 688.852 52.5859C693.202 52.8844 697.325 49.6711 697.739 45.6659C698.148 41.7022 696.155 39.5296 691.966 38.9077C691.387 37.6265 691.167 36.109 690.411 35.7525C689.575 35.3627 688.24 36.0427 686.759 36.3246C687.086 35.4995 687.189 34.1603 687.901 33.6172C690.845 31.3658 694.261 30.8476 698.272 31.457C697.354 32.0002 696.771 32.2614 696.283 32.6428C694.31 34.1686 694.261 37.1829 696.32 38.2733C697.04 38.6548 698.404 38.6299 699.025 38.178C700.059 37.4234 699.658 36.2334 698.843 35.3461C698.475 34.9481 698.003 34.6454 697.561 34.2847C700.82 31.739 706.473 34.0028 708.396 40.2884C707.817 40.0852 707.453 39.4964 706.928 39.2228C704.004 37.697 700.121 39.2726 699.546 42.1583C699.269 43.539 699.509 44.8906 700.853 45.3923C701.688 45.7074 703.04 45.5996 703.743 45.0979C704.972 44.2189 704.661 42.8756 703.847 41.7063C703.781 41.611 703.785 41.47 703.718 41.2005C706.179 40.96 707.535 41.7727 708.76 44.1319C710.145 46.8061 709.554 51.4498 707.395 54.0578C707.143 53.0378 707.035 52.0717 706.671 51.2176C705.885 49.3809 704.417 48.3609 702.437 48.108C700.935 47.9173 699.662 48.3526 698.785 49.6297C697.937 50.8611 697.888 52.1339 698.888 53.3115C699.798 54.377 701.051 54.6175 702.13 53.8463C702.854 53.328 703.21 52.2915 703.735 51.483C707.105 53.581 705.807 60.2521 701.444 64.4273C701.262 63.312 701.303 62.0889 700.836 61.1104C700.203 59.7836 699.372 58.4237 698.28 57.4783C696.99 56.3589 694.683 57.0388 693.773 58.4734C692.971 59.738 693.21 61.3716 694.327 62.2464C695.729 63.3452 696.825 63.0798 698.309 61.297C698.371 61.2223 698.529 61.2348 698.644 61.2057C699.629 64.3071 699.43 66.5957 699.058 68.1215C698.632 69.8671 698.028 70.4268 696.742 73.6484C696.192 75.029 695.319 77.2099 694.96 78.9637C694.587 80.7549 694.306 84.2377 696.75 89.1094C695.857 85.241 696.204 82.177 696.556 80.3983C697.122 77.5084 698.218 75.3815 699.356 73.2089C700.741 70.5553 702.077 69.0295 703.152 67.2633C705.848 62.8144 708.908 58.5232 711.063 53.8214C714.119 47.1378 713.863 40.392 709.016 34.4298Z" fill="#E84E91"/>
<path d="M560.964 148.711C561.262 148.785 561.381 148.984 561.29 149.299L560.84 150.925C560.798 151.07 560.666 151.19 560.492 151.19C560.215 151.19 558.999 150.941 557.738 150.941C554.748 150.941 553.458 151.746 552.362 157.762C552.052 159.441 551.891 160.714 551.891 161.713C551.891 164.217 552.937 164.719 555.149 164.719C556.737 164.719 557.701 164.408 558.106 164.408C558.276 164.408 558.367 164.528 558.35 164.707L558.288 165.95C558.267 166.361 558.073 166.61 557.676 166.78C557.163 166.995 556.27 167.203 554.219 167.203C550.464 167.203 549 165.548 549 162.082C549 160.917 549.178 159.499 549.496 157.766C550.724 150.999 552.631 148.4 557.577 148.4C559.368 148.391 560.426 148.561 560.964 148.711Z" fill="white"/>
<path d="M572.597 151.036C569.954 151.036 569.135 152.061 568.126 157.782C567.804 159.619 567.634 160.975 567.634 161.97C567.634 164.089 568.42 164.561 570.219 164.561C572.775 164.561 573.647 163.533 574.656 157.782C574.97 155.991 575.144 154.656 575.144 153.669C575.144 151.517 574.35 151.041 572.597 151.036ZM578.064 152.998C578.064 154.275 577.865 155.854 577.526 157.757C576.372 164.308 575.02 167.194 569.756 167.194C565.992 167.194 564.739 165.722 564.739 162.546C564.739 161.257 564.954 159.669 565.289 157.757C566.439 151.223 567.779 148.424 573.056 148.424C576.815 148.424 578.064 149.855 578.064 152.998Z" fill="white"/>
<path d="M597.628 148.661C598.178 148.661 598.456 149.001 598.344 149.635L595.35 166.664C595.317 166.842 595.176 166.962 594.998 166.962H592.811C592.649 166.962 592.55 166.842 592.583 166.664L594.634 155.001C594.659 154.855 594.589 154.835 594.498 154.959L591.028 159.416C590.735 159.798 590.35 159.98 589.961 159.98C589.569 159.98 589.25 159.798 589.093 159.416L587.191 154.959C587.141 154.835 587.062 154.855 587.038 155.001L584.986 166.664C584.953 166.842 584.817 166.962 584.651 166.962H582.464C582.286 166.962 582.187 166.842 582.216 166.664L585.21 149.635C585.321 149.001 585.718 148.661 586.268 148.661H586.686C587.166 148.661 587.364 148.852 587.501 149.171L590.379 155.888C590.478 156.124 590.507 156.174 590.631 156.174C590.759 156.174 590.801 156.124 590.987 155.888L596.227 149.171C596.479 148.852 596.739 148.661 597.219 148.661H597.628Z" fill="white"/>
<path d="M617.578 148.661C618.128 148.661 618.405 149.001 618.293 149.635L615.299 166.664C615.266 166.842 615.129 166.962 614.947 166.962H612.76C612.599 166.962 612.499 166.842 612.528 166.664L614.579 155.001C614.604 154.855 614.534 154.835 614.443 154.959L610.973 159.416C610.68 159.798 610.295 159.98 609.902 159.98C609.509 159.98 609.191 159.798 609.034 159.416L607.132 154.959C607.082 154.835 607.003 154.855 606.979 155.001L604.927 166.664C604.894 166.842 604.758 166.962 604.592 166.962H602.405C602.227 166.962 602.128 166.842 602.157 166.664L605.151 149.635C605.262 149.001 605.659 148.661 606.209 148.661H606.627C607.107 148.661 607.305 148.852 607.442 149.171L610.32 155.888C610.419 156.124 610.448 156.174 610.572 156.174C610.696 156.174 610.742 156.124 610.928 155.888L616.167 149.171C616.42 148.852 616.68 148.661 617.16 148.661H617.578Z" fill="white"/>
<path d="M636.307 148.661C636.452 148.661 636.567 148.781 636.534 148.96L634.297 161.672C633.673 165.221 632.49 167.128 627.709 167.128C622.933 167.128 622.424 165.221 623.049 161.672L625.286 148.96C625.319 148.781 625.46 148.661 625.621 148.661H627.776C627.953 148.661 628.069 148.781 628.036 148.96L625.795 161.717C625.406 163.923 625.786 164.616 628.152 164.616C630.484 164.616 631.134 163.923 631.522 161.717L633.768 148.96C633.801 148.781 633.941 148.661 634.119 148.661H636.307Z" fill="white"/>
<path d="M654.47 148.661C654.614 148.661 654.73 148.781 654.701 148.943L651.703 165.988C651.591 166.622 651.194 166.962 650.562 166.962H649.71C649.478 166.962 649.354 166.884 649.305 166.726L645.206 155.009C645.14 154.855 645.016 154.889 644.987 155.059L642.953 166.68C642.924 166.842 642.766 166.962 642.622 166.962H640.418C640.256 166.962 640.157 166.842 640.186 166.68L643.184 149.635C643.296 149.001 643.693 148.661 644.326 148.661H645.314C645.599 148.661 645.711 148.74 645.81 148.964L649.718 160.374C649.768 160.527 649.925 160.494 649.958 160.324L651.964 148.947C651.993 148.786 652.133 148.665 652.278 148.665H654.47V148.661Z" fill="white"/>
<path d="M663.927 148.661C664.176 148.661 664.287 148.798 664.242 149.043L661.157 166.577C661.111 166.825 660.954 166.958 660.706 166.958H658.651C658.403 166.958 658.291 166.821 658.336 166.577L661.421 149.043C661.467 148.794 661.624 148.661 661.872 148.661H663.927Z" fill="white"/>
<path d="M680.415 148.711C680.713 148.785 680.833 148.984 680.742 149.299L680.291 150.925C680.25 151.07 680.118 151.19 679.944 151.19C679.667 151.19 678.451 150.941 677.19 150.941C674.2 150.941 672.91 151.746 671.814 157.762C671.504 159.441 671.342 160.714 671.342 161.713C671.342 164.217 672.389 164.719 674.601 164.719C676.189 164.719 677.153 164.408 677.558 164.408C677.731 164.408 677.814 164.528 677.802 164.707L677.74 165.95C677.719 166.361 677.525 166.61 677.128 166.78C676.615 166.995 675.722 167.203 673.67 167.203C669.92 167.203 668.452 165.548 668.452 162.082C668.452 160.917 668.629 159.499 668.948 157.766C670.176 150.999 672.082 148.4 677.028 148.4C678.819 148.391 679.878 148.561 680.415 148.711Z" fill="white"/>
<path d="M713.461 148.649C713.71 148.649 713.821 148.786 713.776 149.03L713.47 150.776C713.428 151.021 713.267 151.161 713.019 151.161H709.272C709.177 151.161 709.061 151.232 709.045 151.344L706.365 166.577C706.324 166.826 706.162 166.958 705.914 166.958H703.925C703.677 166.958 703.565 166.822 703.611 166.577L706.291 151.344C706.311 151.232 706.237 151.161 706.142 151.161H702.362C702.114 151.161 702.002 151.025 702.048 150.776L702.354 149.03C702.395 148.782 702.556 148.649 702.804 148.649H713.461Z" fill="white"/>
<path d="M728.241 148.661C728.485 148.661 728.601 148.797 728.556 149.042L728.246 150.804C728.204 151.053 728.051 151.19 727.795 151.19H724.309C721.964 151.19 721.435 151.492 721.062 153.611L720.612 156.173C720.595 156.269 720.665 156.356 720.76 156.356H725.785C726.033 156.356 726.145 156.493 726.099 156.737L725.789 158.499C725.744 158.744 725.586 158.881 725.338 158.881H720.314C720.219 158.881 720.115 158.985 720.099 159.068L719.582 162.003C719.21 164.122 719.632 164.424 721.976 164.424H725.462C725.719 164.424 725.822 164.561 725.777 164.806L725.467 166.572C725.421 166.821 725.272 166.953 725.016 166.953H721.195C717.105 166.953 716.178 165.606 716.757 162.326L718.35 153.279C718.928 150 720.326 148.652 723.912 148.652H728.241V148.661Z" fill="white"/>
<path d="M692.975 159.391C692.954 159.519 692.851 159.607 692.722 159.607H687.971C687.843 159.607 687.772 159.519 687.793 159.391L688.339 156.281H688.326C689.191 151.874 689.695 151.041 691.813 151.041C693.09 151.041 693.723 151.517 693.723 153.673C693.723 154.391 693.64 155.299 693.487 156.431L692.975 159.391ZM692.226 148.424C687.917 148.424 686.556 150.804 685.576 156.281L683.765 166.576C683.724 166.825 683.835 166.958 684.079 166.958H686.085C686.317 166.958 686.47 166.833 686.523 166.609C686.527 166.597 686.532 166.589 686.536 166.576L687.28 162.351C687.297 162.252 687.355 162.202 687.425 162.169C687.458 162.152 687.491 162.136 687.532 162.136H692.284C692.363 162.136 692.408 162.169 692.437 162.223C692.454 162.256 692.47 162.293 692.462 162.351L691.722 166.576C691.705 166.676 691.717 166.755 691.751 166.813C691.796 166.904 691.891 166.958 692.036 166.958H694.037C694.286 166.958 694.443 166.821 694.488 166.576L695.456 161.07C695.675 160.092 695.869 158.989 696.06 157.757C696.101 157.5 696.13 157.26 696.167 157.015C696.204 156.766 696.242 156.518 696.271 156.281C696.436 155.025 696.531 153.93 696.531 152.998C696.527 149.855 695.324 148.424 692.226 148.424Z" fill="white"/>
<path d="M317.108 66.3887C318.17 66.3887 318.65 66.9691 318.46 68.0388L310.309 114.389C309.155 120.948 310.441 122.341 317.149 122.341H331.226C332.309 122.341 332.768 122.922 332.578 123.991L331.205 131.803C331.015 132.868 330.353 133.449 329.27 133.449H313.406C298.866 133.449 295.847 127.354 297.799 116.259L306.277 68.0388C306.467 66.9733 307.145 66.3887 308.212 66.3887H317.108V66.3887Z" fill="white"/>
<path d="M381.223 66.3887C382.286 66.3887 382.766 66.9691 382.575 68.0388L381.202 75.8502C381.016 76.9158 380.351 77.4962 379.271 77.4962H367.171C359.214 77.4962 357.271 78.4416 356.034 85.4734L354.686 93.1314C354.624 93.4963 354.91 93.8445 355.273 93.8445H371.786C372.849 93.8445 373.329 94.425 373.138 95.4906L371.765 103.302C371.579 104.368 370.897 104.948 369.83 104.948H353.317C352.953 104.948 352.532 105.375 352.47 105.719L350.948 114.364C349.711 121.396 351.324 122.341 359.281 122.341H371.381C372.464 122.341 372.923 122.922 372.733 123.991L371.36 131.803C371.174 132.868 370.508 133.449 369.429 133.449H355.774C340.005 133.449 336.379 127.943 338.562 115.537L344.054 84.3084C346.238 71.9031 351.8 66.397 365.277 66.397H381.223V66.3887Z" fill="white"/>
<path d="M429.852 66.3713C430.914 66.3713 431.394 66.9518 431.204 68.0215L429.843 75.7541C429.657 76.8197 428.975 77.4043 427.908 77.4043H414.852C414.488 77.4043 414.017 77.6738 413.938 78.1174L404.497 131.798C404.311 132.863 403.629 133.448 402.562 133.448H393.745C392.682 133.448 392.203 132.867 392.393 131.798L401.834 78.1133C401.913 77.6696 401.611 77.4001 401.247 77.4001H388.038C386.971 77.4001 386.496 76.8197 386.682 75.7499L388.042 68.0174C388.229 66.9518 388.911 66.3672 389.974 66.3672H429.852V66.3713Z" fill="white"/>
<path d="M482.388 66.4839C483.409 66.7575 484.05 67.3339 483.641 68.7684L481.47 76.7C481.275 77.3759 480.779 77.8817 479.853 77.8817C478.794 77.8817 471.367 77.0607 465.912 77.0607C458.096 77.0607 456.211 79.5028 456.211 84.5611C456.211 88.9312 460.28 90.7928 466.628 94.5078C474.985 99.4044 478.195 102.895 478.195 110.122C478.195 123.328 474.944 134.352 452.82 134.352C448.242 134.352 440.968 133.424 438.602 132.632C436.849 132.035 436.559 131.002 437.155 128.929L439.04 122.631C439.251 121.877 439.748 121.371 440.674 121.371C441.956 121.371 447.204 122.78 453.469 122.78C462.678 122.78 465.648 119.737 465.648 113.261C465.648 109.169 462.964 106.909 456.037 103.007C447.803 98.372 443.8 94.1678 443.8 86.3108C443.8 75.0416 447.559 65.4888 466.917 65.4888C472.186 65.4847 479.811 65.779 482.388 66.4839Z" fill="white"/>
<path d="M430.104 40.1018C428.822 42.2495 428.371 44.364 430.228 46.2547C431.601 47.6561 433.247 47.6354 435.219 46.3915C433.582 49.7292 429.264 50.2599 426.622 48.1661C423.024 45.3135 422.854 39.8572 426.444 35.8188C426.837 37.9665 427.552 39.795 430.104 40.1018ZM450.016 34.4298C445.719 29.1476 440.112 27.1865 433.392 28.3018C426.99 29.3632 421.515 34.6828 420.766 40.6698C420.005 46.773 424.141 52.192 429.852 52.5859C434.202 52.8844 438.325 49.6711 438.739 45.6659C439.148 41.7022 437.155 39.5296 432.966 38.9077C432.387 37.6265 432.167 36.109 431.411 35.7525C430.575 35.3627 429.24 36.0427 427.759 36.3246C428.086 35.4995 428.189 34.1603 428.9 33.6172C431.845 31.3658 435.261 30.8476 439.272 31.457C438.354 32.0002 437.771 32.2614 437.283 32.6428C435.31 34.1686 435.261 37.1829 437.32 38.2733C438.04 38.6548 439.404 38.6299 440.025 38.178C441.059 37.4234 440.657 36.2334 439.843 35.3461C439.475 34.9481 439.003 34.6454 438.561 34.2847C441.819 31.739 447.473 34.0028 449.396 40.2884C448.817 40.0852 448.453 39.4964 447.928 39.2228C445.004 37.697 441.121 39.2726 440.546 42.1583C440.269 43.539 440.509 44.8906 441.853 45.3923C442.688 45.7074 444.04 45.5996 444.743 45.0979C445.971 44.2189 445.661 42.8756 444.847 41.7063C444.78 41.611 444.785 41.47 444.718 41.2005C447.179 40.96 448.535 41.7727 449.759 44.1319C451.145 46.8061 450.553 51.4498 448.395 54.0578C448.143 53.0378 448.035 52.0717 447.671 51.2176C446.885 49.3809 445.417 48.3609 443.436 48.108C441.935 47.9173 440.662 48.3526 439.785 49.6297C438.937 50.8611 438.887 52.1339 439.888 53.3115C440.798 54.377 442.051 54.6175 443.13 53.8463C443.854 53.328 444.21 52.2915 444.735 51.483C448.105 53.581 446.807 60.2521 442.444 64.4273C442.262 63.312 442.303 62.0889 441.836 61.1104C441.203 59.7836 440.372 58.4237 439.28 57.4783C437.99 56.3589 435.683 57.0388 434.773 58.4734C433.97 59.738 434.21 61.3716 435.327 62.2464C436.729 63.3452 437.825 63.0798 439.309 61.297C439.371 61.2223 439.528 61.2348 439.644 61.2057C440.628 64.3071 440.43 66.5957 440.058 68.1215C439.632 69.8671 439.028 70.4268 437.742 73.6484C437.192 75.029 436.319 77.2099 435.96 78.9637C435.587 80.7549 435.306 84.2377 437.75 89.1094C436.857 85.241 437.204 82.177 437.556 80.3983C438.122 77.5084 439.218 75.3815 440.356 73.2089C441.741 70.5553 443.077 69.0295 444.152 67.2633C446.848 62.8144 449.908 58.5232 452.063 53.8214C455.119 47.1378 454.863 40.392 450.016 34.4298Z" fill="#B2D03B"/>
<path d="M301.964 148.711C302.262 148.785 302.381 148.984 302.29 149.299L301.84 150.925C301.798 151.07 301.666 151.19 301.492 151.19C301.215 151.19 299.999 150.941 298.738 150.941C295.748 150.941 294.458 151.746 293.362 157.762C293.052 159.441 292.891 160.714 292.891 161.713C292.891 164.217 293.937 164.719 296.149 164.719C297.737 164.719 298.701 164.408 299.106 164.408C299.276 164.408 299.367 164.528 299.35 164.707L299.288 165.95C299.267 166.361 299.073 166.61 298.676 166.78C298.163 166.995 297.27 167.203 295.219 167.203C291.464 167.203 290 165.548 290 162.082C290 160.917 290.178 159.499 290.496 157.766C291.724 150.999 293.631 148.4 298.577 148.4C300.368 148.391 301.426 148.561 301.964 148.711Z" fill="white"/>
<path d="M313.597 151.036C310.954 151.036 310.135 152.061 309.126 157.782C308.804 159.619 308.634 160.975 308.634 161.97C308.634 164.089 309.42 164.561 311.219 164.561C313.775 164.561 314.647 163.533 315.656 157.782C315.97 155.991 316.144 154.656 316.144 153.669C316.144 151.517 315.35 151.041 313.597 151.036ZM319.064 152.998C319.064 154.275 318.865 155.854 318.526 157.757C317.372 164.308 316.02 167.194 310.756 167.194C306.992 167.194 305.739 165.722 305.739 162.546C305.739 161.257 305.954 159.669 306.289 157.757C307.439 151.223 308.779 148.424 314.056 148.424C317.815 148.424 319.064 149.855 319.064 152.998Z" fill="white"/>
<path d="M338.628 148.661C339.178 148.661 339.456 149.001 339.344 149.635L336.35 166.664C336.317 166.842 336.176 166.962 335.998 166.962H333.811C333.649 166.962 333.55 166.842 333.583 166.664L335.634 155.001C335.659 154.855 335.589 154.835 335.498 154.959L332.028 159.416C331.735 159.798 331.35 159.98 330.961 159.98C330.569 159.98 330.25 159.798 330.093 159.416L328.191 154.959C328.141 154.835 328.062 154.855 328.038 155.001L325.986 166.664C325.953 166.842 325.817 166.962 325.651 166.962H323.464C323.286 166.962 323.187 166.842 323.216 166.664L326.21 149.635C326.321 149.001 326.718 148.661 327.268 148.661H327.686C328.166 148.661 328.364 148.852 328.501 149.171L331.379 155.888C331.478 156.124 331.507 156.174 331.631 156.174C331.759 156.174 331.801 156.124 331.987 155.888L337.227 149.171C337.479 148.852 337.739 148.661 338.219 148.661H338.628Z" fill="white"/>
<path d="M358.578 148.661C359.128 148.661 359.405 149.001 359.293 149.635L356.299 166.664C356.266 166.842 356.129 166.962 355.947 166.962H353.76C353.599 166.962 353.499 166.842 353.528 166.664L355.579 155.001C355.604 154.855 355.534 154.835 355.443 154.959L351.973 159.416C351.68 159.798 351.295 159.98 350.902 159.98C350.509 159.98 350.191 159.798 350.034 159.416L348.132 154.959C348.082 154.835 348.003 154.855 347.979 155.001L345.927 166.664C345.894 166.842 345.758 166.962 345.592 166.962H343.405C343.227 166.962 343.128 166.842 343.157 166.664L346.151 149.635C346.262 149.001 346.659 148.661 347.209 148.661H347.627C348.107 148.661 348.305 148.852 348.442 149.171L351.32 155.888C351.419 156.124 351.448 156.174 351.572 156.174C351.696 156.174 351.742 156.124 351.928 155.888L357.167 149.171C357.42 148.852 357.68 148.661 358.16 148.661H358.578Z" fill="white"/>
<path d="M377.307 148.661C377.452 148.661 377.567 148.781 377.534 148.96L375.297 161.672C374.673 165.221 373.49 167.128 368.709 167.128C363.933 167.128 363.424 165.221 364.049 161.672L366.286 148.96C366.319 148.781 366.46 148.661 366.621 148.661H368.776C368.953 148.661 369.069 148.781 369.036 148.96L366.795 161.717C366.406 163.923 366.786 164.616 369.152 164.616C371.484 164.616 372.134 163.923 372.522 161.717L374.768 148.96C374.801 148.781 374.941 148.661 375.119 148.661H377.307Z" fill="white"/>
<path d="M395.47 148.661C395.614 148.661 395.73 148.781 395.701 148.943L392.703 165.988C392.591 166.622 392.194 166.962 391.562 166.962H390.71C390.478 166.962 390.354 166.884 390.305 166.726L386.206 155.009C386.14 154.855 386.016 154.889 385.987 155.059L383.953 166.68C383.924 166.842 383.766 166.962 383.622 166.962H381.418C381.256 166.962 381.157 166.842 381.186 166.68L384.184 149.635C384.296 149.001 384.693 148.661 385.326 148.661H386.314C386.599 148.661 386.711 148.74 386.81 148.964L390.718 160.374C390.768 160.527 390.925 160.494 390.958 160.324L392.964 148.947C392.993 148.786 393.133 148.665 393.278 148.665H395.47V148.661Z" fill="white"/>
<path d="M404.927 148.661C405.176 148.661 405.287 148.798 405.242 149.043L402.157 166.577C402.111 166.825 401.954 166.958 401.706 166.958H399.651C399.403 166.958 399.291 166.821 399.336 166.577L402.421 149.043C402.467 148.794 402.624 148.661 402.872 148.661H404.927Z" fill="white"/>
<path d="M421.415 148.711C421.713 148.785 421.833 148.984 421.742 149.299L421.291 150.925C421.25 151.07 421.118 151.19 420.944 151.19C420.667 151.19 419.451 150.941 418.19 150.941C415.2 150.941 413.91 151.746 412.814 157.762C412.503 159.441 412.342 160.714 412.342 161.713C412.342 164.217 413.388 164.719 415.601 164.719C417.189 164.719 418.152 164.408 418.558 164.408C418.731 164.408 418.814 164.528 418.802 164.707L418.74 165.95C418.719 166.361 418.525 166.61 418.128 166.78C417.615 166.995 416.722 167.203 414.67 167.203C410.92 167.203 409.452 165.548 409.452 162.082C409.452 160.917 409.629 159.499 409.948 157.766C411.176 150.999 413.082 148.4 418.028 148.4C419.819 148.391 420.878 148.561 421.415 148.711Z" fill="white"/>
<path d="M454.461 148.649C454.71 148.649 454.821 148.786 454.776 149.03L454.47 150.776C454.428 151.021 454.267 151.161 454.019 151.161H450.272C450.177 151.161 450.061 151.232 450.045 151.344L447.365 166.577C447.324 166.826 447.162 166.958 446.914 166.958H444.925C444.677 166.958 444.565 166.822 444.611 166.577L447.291 151.344C447.311 151.232 447.237 151.161 447.142 151.161H443.362C443.114 151.161 443.002 151.025 443.048 150.776L443.354 149.03C443.395 148.782 443.556 148.649 443.804 148.649H454.461Z" fill="white"/>
<path d="M469.241 148.661C469.485 148.661 469.601 148.797 469.556 149.042L469.245 150.804C469.204 151.053 469.051 151.19 468.795 151.19H465.309C462.964 151.19 462.434 151.492 462.062 153.611L461.612 156.173C461.595 156.269 461.665 156.356 461.76 156.356H466.785C467.033 156.356 467.145 156.493 467.099 156.737L466.789 158.499C466.744 158.744 466.586 158.881 466.338 158.881H461.314C461.219 158.881 461.115 158.985 461.099 159.068L460.582 162.003C460.21 164.122 460.631 164.424 462.976 164.424H466.462C466.719 164.424 466.822 164.561 466.777 164.806L466.466 166.572C466.421 166.821 466.272 166.953 466.016 166.953H462.195C458.105 166.953 457.178 165.606 457.757 162.326L459.349 153.279C459.928 150 461.326 148.652 464.912 148.652H469.241V148.661Z" fill="white"/>
<path d="M433.975 159.391C433.954 159.519 433.851 159.607 433.722 159.607H428.971C428.843 159.607 428.772 159.519 428.793 159.391L429.339 156.281H429.326C430.191 151.874 430.695 151.041 432.813 151.041C434.09 151.041 434.723 151.517 434.723 153.673C434.723 154.391 434.64 155.299 434.487 156.431L433.975 159.391ZM433.226 148.424C428.917 148.424 427.556 150.804 426.576 156.281L424.765 166.576C424.724 166.825 424.835 166.958 425.079 166.958H427.085C427.317 166.958 427.47 166.833 427.523 166.609C427.527 166.597 427.532 166.589 427.536 166.576L428.28 162.351C428.297 162.252 428.355 162.202 428.425 162.169C428.458 162.152 428.491 162.136 428.532 162.136H433.284C433.363 162.136 433.408 162.169 433.437 162.223C433.454 162.256 433.47 162.293 433.462 162.351L432.722 166.576C432.705 166.676 432.717 166.755 432.751 166.813C432.796 166.904 432.891 166.958 433.036 166.958H435.037C435.286 166.958 435.443 166.821 435.488 166.576L436.456 161.07C436.675 160.092 436.869 158.989 437.06 157.757C437.101 157.5 437.13 157.26 437.167 157.015C437.204 156.766 437.242 156.518 437.271 156.281C437.436 155.025 437.531 153.93 437.531 152.998C437.527 149.855 436.324 148.424 433.226 148.424Z" fill="white"/>
<path d="M835.108 66.3887C836.17 66.3887 836.65 66.9691 836.46 68.0388L828.309 114.389C827.155 120.948 828.441 122.341 835.149 122.341H849.226C850.309 122.341 850.768 122.922 850.578 123.991L849.205 131.803C849.015 132.868 848.353 133.449 847.27 133.449H831.406C816.866 133.449 813.847 127.354 815.799 116.259L824.277 68.0388C824.467 66.9733 825.145 66.3887 826.212 66.3887H835.108V66.3887Z" fill="white"/>
<path d="M899.223 66.3887C900.286 66.3887 900.766 66.9691 900.575 68.0388L899.202 75.8502C899.016 76.9158 898.351 77.4962 897.271 77.4962H885.171C877.214 77.4962 875.271 78.4416 874.034 85.4734L872.686 93.1314C872.624 93.4963 872.91 93.8445 873.273 93.8445H889.786C890.849 93.8445 891.329 94.425 891.138 95.4906L889.765 103.302C889.579 104.368 888.897 104.948 887.83 104.948H871.317C870.953 104.948 870.532 105.375 870.47 105.719L868.948 114.364C867.711 121.396 869.324 122.341 877.281 122.341H889.381C890.464 122.341 890.923 122.922 890.733 123.991L889.36 131.803C889.174 132.868 888.508 133.449 887.429 133.449H873.774C858.005 133.449 854.379 127.943 856.562 115.537L862.054 84.3084C864.238 71.9031 869.8 66.397 883.277 66.397H899.223V66.3887Z" fill="white"/>
<path d="M947.852 66.3713C948.914 66.3713 949.394 66.9518 949.204 68.0215L947.843 75.7541C947.657 76.8197 946.975 77.4043 945.908 77.4043H932.852C932.488 77.4043 932.017 77.6738 931.938 78.1174L922.497 131.798C922.311 132.863 921.629 133.448 920.562 133.448H911.745C910.682 133.448 910.203 132.867 910.393 131.798L919.834 78.1133C919.913 77.6696 919.611 77.4001 919.247 77.4001H906.038C904.971 77.4001 904.496 76.8197 904.682 75.7499L906.042 68.0174C906.229 66.9518 906.911 66.3672 907.974 66.3672H947.852V66.3713Z" fill="white"/>
<path d="M1000.39 66.4839C1001.41 66.7575 1002.05 67.3339 1001.64 68.7684L999.47 76.7C999.276 77.3759 998.779 77.8817 997.853 77.8817C996.794 77.8817 989.367 77.0607 983.912 77.0607C976.097 77.0607 974.211 79.5028 974.211 84.5611C974.211 88.9312 978.28 90.7928 984.628 94.5078C992.986 99.4044 996.195 102.895 996.195 110.122C996.195 123.328 992.944 134.352 970.82 134.352C966.242 134.352 958.968 133.424 956.602 132.632C954.849 132.035 954.559 131.002 955.155 128.929L957.041 122.631C957.251 121.877 957.748 121.371 958.674 121.371C959.956 121.371 965.204 122.78 971.469 122.78C980.679 122.78 983.648 119.737 983.648 113.261C983.648 109.169 980.964 106.909 974.037 103.007C965.803 98.372 961.8 94.1678 961.8 86.3108C961.8 75.0416 965.559 65.4888 984.917 65.4888C990.186 65.4847 997.812 65.779 1000.39 66.4839Z" fill="white"/>
<path d="M948.104 40.1018C946.822 42.2495 946.371 44.364 948.228 46.2547C949.601 47.6561 951.247 47.6354 953.219 46.3915C951.582 49.7292 947.264 50.2599 944.622 48.1661C941.024 45.3135 940.854 39.8572 944.444 35.8188C944.837 37.9665 945.552 39.795 948.104 40.1018ZM968.016 34.4298C963.719 29.1476 958.112 27.1865 951.392 28.3018C944.99 29.3632 939.515 34.6828 938.766 40.6698C938.005 46.773 942.141 52.192 947.852 52.5859C952.202 52.8844 956.325 49.6711 956.739 45.6659C957.148 41.7022 955.155 39.5296 950.966 38.9077C950.387 37.6265 950.167 36.109 949.411 35.7525C948.575 35.3627 947.24 36.0427 945.759 36.3246C946.086 35.4995 946.189 34.1603 946.9 33.6172C949.845 31.3658 953.261 30.8476 957.272 31.457C956.354 32.0002 955.771 32.2614 955.283 32.6428C953.31 34.1686 953.261 37.1829 955.32 38.2733C956.04 38.6548 957.404 38.6299 958.025 38.178C959.059 37.4234 958.657 36.2334 957.843 35.3461C957.475 34.9481 957.003 34.6454 956.561 34.2847C959.819 31.739 965.473 34.0028 967.396 40.2884C966.817 40.0852 966.453 39.4964 965.928 39.2228C963.004 37.697 959.121 39.2726 958.546 42.1583C958.269 43.539 958.509 44.8906 959.853 45.3923C960.688 45.7074 962.04 45.5996 962.743 45.0979C963.971 44.2189 963.661 42.8756 962.847 41.7063C962.78 41.611 962.785 41.47 962.718 41.2005C965.179 40.96 966.535 41.7727 967.759 44.1319C969.145 46.8061 968.553 51.4498 966.395 54.0578C966.143 53.0378 966.035 52.0717 965.671 51.2176C964.885 49.3809 963.417 48.3609 961.436 48.108C959.935 47.9173 958.662 48.3526 957.785 49.6297C956.937 50.8611 956.887 52.1339 957.888 53.3115C958.798 54.377 960.051 54.6175 961.13 53.8463C961.854 53.328 962.21 52.2915 962.735 51.483C966.105 53.581 964.807 60.2521 960.444 64.4273C960.262 63.312 960.303 62.0889 959.836 61.1104C959.203 59.7836 958.372 58.4237 957.28 57.4783C955.99 56.3589 953.683 57.0388 952.773 58.4734C951.97 59.738 952.21 61.3716 953.327 62.2464C954.729 63.3452 955.825 63.0798 957.309 61.297C957.371 61.2223 957.528 61.2348 957.644 61.2057C958.628 64.3071 958.43 66.5957 958.058 68.1215C957.632 69.8671 957.028 70.4268 955.742 73.6484C955.192 75.029 954.319 77.2099 953.96 78.9637C953.587 80.7549 953.306 84.2377 955.75 89.1094C954.857 85.241 955.204 82.177 955.556 80.3983C956.122 77.5084 957.218 75.3815 958.356 73.2089C959.741 70.5553 961.077 69.0295 962.152 67.2633C964.848 62.8144 967.908 58.5232 970.063 53.8214C973.119 47.1378 972.863 40.392 968.016 34.4298Z" fill="#4895D2"/>
<path d="M819.964 148.711C820.262 148.785 820.381 148.984 820.29 149.299L819.84 150.925C819.798 151.07 819.666 151.19 819.492 151.19C819.215 151.19 817.999 150.941 816.738 150.941C813.748 150.941 812.458 151.746 811.362 157.762C811.052 159.441 810.891 160.714 810.891 161.713C810.891 164.217 811.937 164.719 814.149 164.719C815.737 164.719 816.701 164.408 817.106 164.408C817.276 164.408 817.367 164.528 817.35 164.707L817.288 165.95C817.267 166.361 817.073 166.61 816.676 166.78C816.163 166.995 815.27 167.203 813.219 167.203C809.464 167.203 808 165.548 808 162.082C808 160.917 808.178 159.499 808.496 157.766C809.724 150.999 811.631 148.4 816.577 148.4C818.368 148.391 819.426 148.561 819.964 148.711Z" fill="white"/>
<path d="M831.597 151.036C828.954 151.036 828.135 152.061 827.126 157.782C826.804 159.619 826.634 160.975 826.634 161.97C826.634 164.089 827.42 164.561 829.219 164.561C831.775 164.561 832.647 163.533 833.656 157.782C833.971 155.991 834.144 154.656 834.144 153.669C834.144 151.517 833.35 151.041 831.597 151.036ZM837.064 152.998C837.064 154.275 836.865 155.854 836.526 157.757C835.372 164.308 834.02 167.194 828.756 167.194C824.993 167.194 823.74 165.722 823.74 162.546C823.74 161.257 823.955 159.669 824.29 157.757C825.439 151.223 826.779 148.424 832.056 148.424C835.815 148.424 837.064 149.855 837.064 152.998Z" fill="white"/>
<path d="M856.628 148.661C857.179 148.661 857.456 149.001 857.344 149.635L854.35 166.664C854.317 166.842 854.176 166.962 853.998 166.962H851.811C851.649 166.962 851.55 166.842 851.583 166.664L853.634 155.001C853.659 154.855 853.589 154.835 853.498 154.959L850.028 159.416C849.735 159.798 849.35 159.98 848.961 159.98C848.569 159.98 848.25 159.798 848.093 159.416L846.191 154.959C846.141 154.835 846.063 154.855 846.038 155.001L843.987 166.664C843.953 166.842 843.817 166.962 843.652 166.962H841.464C841.286 166.962 841.187 166.842 841.216 166.664L844.21 149.635C844.321 149.001 844.718 148.661 845.269 148.661H845.686C846.166 148.661 846.364 148.852 846.501 149.171L849.379 155.888C849.478 156.124 849.507 156.174 849.631 156.174C849.76 156.174 849.801 156.124 849.987 155.888L855.227 149.171C855.479 148.852 855.739 148.661 856.219 148.661H856.628Z" fill="white"/>
<path d="M876.578 148.661C877.128 148.661 877.405 149.001 877.293 149.635L874.299 166.664C874.266 166.842 874.129 166.962 873.947 166.962H871.76C871.599 166.962 871.499 166.842 871.528 166.664L873.579 155.001C873.604 154.855 873.534 154.835 873.443 154.959L869.973 159.416C869.68 159.798 869.295 159.98 868.902 159.98C868.509 159.98 868.191 159.798 868.034 159.416L866.131 154.959C866.082 154.835 866.003 154.855 865.978 155.001L863.927 166.664C863.894 166.842 863.758 166.962 863.592 166.962H861.405C861.227 166.962 861.128 166.842 861.157 166.664L864.151 149.635C864.262 149.001 864.659 148.661 865.209 148.661H865.627C866.107 148.661 866.305 148.852 866.442 149.171L869.32 155.888C869.419 156.124 869.448 156.174 869.572 156.174C869.696 156.174 869.742 156.124 869.928 155.888L875.167 149.171C875.42 148.852 875.68 148.661 876.16 148.661H876.578Z" fill="white"/>
<path d="M895.307 148.661C895.452 148.661 895.567 148.781 895.534 148.96L893.297 161.672C892.673 165.221 891.49 167.128 886.709 167.128C881.933 167.128 881.424 165.221 882.049 161.672L884.286 148.96C884.319 148.781 884.46 148.661 884.621 148.661H886.776C886.953 148.661 887.069 148.781 887.036 148.96L884.795 161.717C884.406 163.923 884.786 164.616 887.152 164.616C889.484 164.616 890.133 163.923 890.522 161.717L892.768 148.96C892.801 148.781 892.941 148.661 893.119 148.661H895.307Z" fill="white"/>
<path d="M913.47 148.661C913.614 148.661 913.73 148.781 913.701 148.943L910.703 165.988C910.591 166.622 910.194 166.962 909.562 166.962H908.71C908.478 166.962 908.354 166.884 908.305 166.726L904.206 155.009C904.14 154.855 904.016 154.889 903.987 155.059L901.953 166.68C901.924 166.842 901.767 166.962 901.622 166.962H899.418C899.256 166.962 899.157 166.842 899.186 166.68L902.184 149.635C902.296 149.001 902.693 148.661 903.326 148.661H904.314C904.599 148.661 904.711 148.74 904.81 148.964L908.718 160.374C908.768 160.527 908.925 160.494 908.958 160.324L910.964 148.947C910.993 148.786 911.133 148.665 911.278 148.665H913.47V148.661Z" fill="white"/>
<path d="M922.927 148.661C923.175 148.661 923.287 148.798 923.242 149.043L920.157 166.577C920.111 166.825 919.954 166.958 919.706 166.958H917.651C917.402 166.958 917.291 166.821 917.336 166.577L920.421 149.043C920.467 148.794 920.624 148.661 920.872 148.661H922.927Z" fill="white"/>
<path d="M939.415 148.711C939.713 148.785 939.833 148.984 939.742 149.299L939.291 150.925C939.25 151.07 939.118 151.19 938.944 151.19C938.667 151.19 937.451 150.941 936.19 150.941C933.2 150.941 931.91 151.746 930.814 157.762C930.503 159.441 930.342 160.714 930.342 161.713C930.342 164.217 931.388 164.719 933.601 164.719C935.189 164.719 936.152 164.408 936.558 164.408C936.731 164.408 936.814 164.528 936.802 164.707L936.74 165.95C936.719 166.361 936.525 166.61 936.128 166.78C935.615 166.995 934.722 167.203 932.67 167.203C928.92 167.203 927.452 165.548 927.452 162.082C927.452 160.917 927.629 159.499 927.948 157.766C929.176 150.999 931.082 148.4 936.028 148.4C937.819 148.391 938.878 148.561 939.415 148.711Z" fill="white"/>
<path d="M972.462 148.649C972.71 148.649 972.821 148.786 972.776 149.03L972.47 150.776C972.428 151.021 972.267 151.161 972.019 151.161H968.272C968.177 151.161 968.061 151.232 968.045 151.344L965.365 166.577C965.324 166.826 965.163 166.958 964.914 166.958H962.925C962.677 166.958 962.565 166.822 962.611 166.577L965.291 151.344C965.311 151.232 965.237 151.161 965.142 151.161H961.362C961.114 151.161 961.002 151.025 961.048 150.776L961.354 149.03C961.395 148.782 961.556 148.649 961.805 148.649H972.462Z" fill="white"/>
<path d="M987.241 148.661C987.485 148.661 987.601 148.797 987.556 149.042L987.245 150.804C987.204 151.053 987.051 151.19 986.795 151.19H983.309C980.964 151.19 980.434 151.492 980.062 153.611L979.612 156.173C979.595 156.269 979.665 156.356 979.76 156.356H984.785C985.033 156.356 985.145 156.493 985.099 156.737L984.789 158.499C984.744 158.744 984.586 158.881 984.338 158.881H979.314C979.219 158.881 979.115 158.985 979.099 159.068L978.582 162.003C978.21 164.122 978.631 164.424 980.976 164.424H984.462C984.719 164.424 984.822 164.561 984.777 164.806L984.466 166.572C984.421 166.821 984.272 166.953 984.016 166.953H980.195C976.105 166.953 975.178 165.606 975.757 162.326L977.349 153.279C977.928 150 979.326 148.652 982.912 148.652H987.241V148.661Z" fill="white"/>
<path d="M951.975 159.391C951.954 159.519 951.851 159.607 951.722 159.607H946.971C946.843 159.607 946.772 159.519 946.793 159.391L947.339 156.281H947.326C948.191 151.874 948.695 151.041 950.813 151.041C952.09 151.041 952.723 151.517 952.723 153.673C952.723 154.391 952.64 155.299 952.487 156.431L951.975 159.391ZM951.226 148.424C946.917 148.424 945.556 150.804 944.576 156.281L942.765 166.576C942.724 166.825 942.835 166.958 943.079 166.958H945.085C945.317 166.958 945.47 166.833 945.523 166.609C945.527 166.597 945.532 166.589 945.536 166.576L946.28 162.351C946.297 162.252 946.355 162.202 946.425 162.169C946.458 162.152 946.491 162.136 946.532 162.136H951.284C951.363 162.136 951.408 162.169 951.437 162.223C951.454 162.256 951.47 162.293 951.462 162.351L950.722 166.576C950.705 166.676 950.717 166.755 950.751 166.813C950.796 166.904 950.891 166.958 951.036 166.958H953.037C953.286 166.958 953.443 166.821 953.488 166.576L954.456 161.07C954.675 160.092 954.869 158.989 955.06 157.757C955.101 157.5 955.13 157.26 955.167 157.015C955.204 156.766 955.242 156.518 955.271 156.281C955.436 155.025 955.531 153.93 955.531 152.998C955.527 149.855 954.324 148.424 951.226 148.424Z" fill="white"/>
<rect x="0.5" y="0.5" width="1032" height="194" stroke="#D5CDC4"/>
</svg>
