<svg width="24" height="24" viewBox="0 0 24 24" fill="none" xmlns="http://www.w3.org/2000/svg">
    <path fill-rule="evenodd" clip-rule="evenodd" d="M0.388306 19.7804C0.388306 18.7256 1.24335 17.8706 2.2981 17.8706H21.703C22.7577 17.8706 23.6128 18.7256 23.6128 19.7804C23.6128 20.8352 22.7577 21.6902 21.703 21.6902H2.2981C1.24335 21.6902 0.388306 20.8352 0.388306 19.7804Z" fill="#EDEDED"/>
    <path fill-rule="evenodd" clip-rule="evenodd" d="M0.388306 12.0385C0.388306 10.9837 1.24335 10.1287 2.2981 10.1287H21.703C22.7577 10.1287 23.6128 10.9837 23.6128 12.0385C23.6128 13.0932 22.7577 13.9483 21.703 13.9483H2.2981C1.24335 13.9483 0.388306 13.0932 0.388306 12.0385Z" fill="#EDEDED"/>
    <path fill-rule="evenodd" clip-rule="evenodd" d="M0.388306 4.29651C0.388306 3.24176 1.24335 2.38672 2.2981 2.38672H21.703C22.7577 2.38672 23.6128 3.24176 23.6128 4.29651C23.6128 5.35126 22.7577 6.20631 21.703 6.20631H2.2981C1.24335 6.20631 0.388306 5.35126 0.388306 4.29651Z" fill="#EDEDED"/>
</svg>
