<svg width="185" height="133" viewBox="0 0 185 133" fill="none" xmlns="http://www.w3.org/2000/svg">
    <path d="M25.8814 36.5567C26.8961 36.5567 27.3541 37.1095 27.1725 38.1242L19.3903 82.2626C18.2887 88.5089 19.5127 89.8355 25.9208 89.8355H39.361C40.3954 89.8355 40.8337 90.3883 40.6521 91.403L39.3412 98.8416C39.1596 99.8564 38.5279 100.409 37.4934 100.409H22.3476C8.46528 100.409 5.583 94.6051 7.44661 84.0394L15.5407 38.1242C15.7184 37.1095 16.3698 36.5528 17.3885 36.5528H25.8814V36.5567Z" fill="black"/>
    <path d="M87.0961 36.5568C88.1108 36.5568 88.5688 37.1095 88.3872 38.1243L87.0763 45.5629C86.8987 46.5776 86.263 47.1304 85.2325 47.1304H73.6797C66.0831 47.1304 64.2274 48.0306 63.0468 54.727L61.7597 62.0195C61.6965 62.367 61.9729 62.6987 62.3203 62.6987H78.086C79.1007 62.6987 79.5587 63.2514 79.3771 64.2661L78.0663 71.7048C77.8886 72.7195 77.2371 73.2723 76.2184 73.2723H60.4528C60.1053 73.2723 59.7026 73.679 59.6433 74.0067L58.1904 82.2389C57.0098 88.9353 58.5497 89.8355 66.1462 89.8355H77.6991C78.7335 89.8355 79.1718 90.3883 78.9902 91.403L77.6793 98.8417C77.5016 99.8564 76.866 100.409 75.8354 100.409H62.7981C47.7431 100.409 44.2804 95.1658 46.3651 83.3524L51.6085 53.6135C53.6932 41.8001 59.0037 36.5568 71.8713 36.5568H87.0961Z" fill="black"/>
    <path d="M133.525 36.541C134.539 36.541 134.997 37.0937 134.816 38.1084L133.517 45.4721C133.339 46.4868 132.687 47.0435 131.669 47.0435H119.204C118.856 47.0435 118.406 47.3002 118.331 47.7226L109.321 98.8456C109.144 99.8603 108.492 100.417 107.473 100.417H99.0556C98.0409 100.417 97.5829 99.8643 97.7645 98.8456L106.779 47.7226C106.854 47.3002 106.565 47.0435 106.218 47.0435H93.603C92.5882 47.0435 92.1302 46.4908 92.3119 45.4721L93.6109 38.1084C93.7885 37.0937 94.44 36.541 95.4547 36.541H133.525Z" fill="black"/>
    <path d="M183.684 36.6476C184.659 36.9082 185.271 37.457 184.88 38.8231L182.808 46.3763C182.618 47.0198 182.148 47.5015 181.264 47.5015C180.253 47.5015 173.162 46.7198 167.954 46.7198C160.492 46.7198 158.691 49.0453 158.691 53.8623C158.691 58.0238 162.576 59.7966 168.637 63.3343C176.617 67.9973 179.684 71.3218 179.684 78.2038C179.684 90.7792 176.581 101.278 155.457 101.278C151.087 101.278 144.142 100.393 141.883 99.6432C140.209 99.0746 139.933 98.0915 140.501 96.1173L142.302 90.1198C142.503 89.4012 142.977 88.9195 143.861 88.9195C145.085 88.9195 150.096 90.262 156.077 90.262C164.87 90.262 167.709 87.3639 167.709 81.1966C167.709 77.2996 165.147 75.1477 158.529 71.4324C150.668 67.0181 146.846 63.0145 146.846 55.5324C146.846 44.8048 150.435 35.7039 168.917 35.7039C173.947 35.696 181.224 35.9764 183.684 36.6476Z" fill="black"/>
    <path d="M152.777 6.12305C148.674 1.09287 143.32 -0.774688 136.904 0.287413C130.792 1.29818 125.565 6.35994 124.85 12.0653C124.124 17.8772 128.072 23.0377 133.525 23.4128C137.674 23.6971 141.615 20.6371 142.01 16.8191C142.4 13.0445 140.497 10.9755 136.498 10.3833C135.945 9.16326 135.736 7.71817 135.013 7.37861C134.216 7.00747 132.94 7.655 131.523 7.92348C131.835 7.13777 131.933 5.86246 132.613 5.34522C135.424 3.20128 138.681 2.70774 142.515 3.28815C141.638 3.80538 141.082 4.05412 140.616 4.41736C138.732 5.87035 138.685 8.74079 140.651 9.7792C141.338 10.1424 142.641 10.1188 143.238 9.68839C144.225 8.96979 143.842 7.83662 143.06 6.99168C142.708 6.61264 142.258 6.32441 141.836 5.98091C144.947 3.55663 150.345 5.71242 152.18 11.702C151.628 11.5086 151.28 10.9479 150.779 10.6873C147.987 9.23433 144.28 10.7347 143.731 13.4827C143.467 14.7975 143.696 16.0847 144.979 16.5624C145.776 16.8586 147.063 16.7598 147.739 16.2781C148.911 15.4411 148.619 14.1618 147.837 13.0484C147.774 12.9576 147.778 12.8234 147.715 12.5667C150.068 12.3377 151.359 13.1116 152.528 15.3582C153.851 17.9049 153.286 22.327 151.225 24.8105C150.984 23.8392 150.881 22.9192 150.534 22.1059C149.784 20.3568 148.382 19.3855 146.491 19.1446C145.058 18.9591 143.842 19.3776 143.005 20.5937C142.195 21.7663 142.144 22.9785 143.103 24.0998C143.972 25.1145 145.168 25.3435 146.199 24.6091C146.89 24.1156 147.229 23.1285 147.731 22.3586C150.949 24.3564 149.709 30.7093 145.543 34.6853C145.37 33.6232 145.409 32.4584 144.963 31.5266C144.359 30.2631 143.565 28.9681 142.523 28.0679C141.291 27.0018 139.088 27.6493 138.219 29.0155C137.453 30.2197 137.682 31.7753 138.748 32.6084C140.087 33.6547 141.133 33.4021 142.551 31.7043C142.61 31.6332 142.76 31.645 142.87 31.6174C143.81 34.5708 143.621 36.7502 143.265 38.2032C142.858 39.8655 142.282 40.3985 141.054 43.4663C140.529 44.7811 139.696 46.858 139.352 48.5281C138.997 50.2377 138.729 53.5504 141.062 58.1897C140.209 54.5059 140.541 51.5881 140.876 49.8942C141.417 47.1422 142.464 45.1167 143.549 43.0478C144.872 40.5209 146.147 39.0679 147.174 37.3859C149.748 33.1494 152.67 29.0628 154.727 24.5854C157.649 18.2247 157.404 11.8007 152.777 6.12305ZM133.765 11.5244C132.541 13.5696 132.111 15.5832 133.88 17.3837C135.191 18.7182 136.762 18.6985 138.646 17.514C137.082 20.6963 132.96 21.1978 130.437 19.2039C127.002 16.4914 126.84 11.2914 130.267 7.44574C130.65 9.49097 131.329 11.2322 133.765 11.5244Z" fill="#4D97D4"/>
    <path d="M11.4225 114.951C11.7068 115.022 11.8213 115.211 11.7344 115.512L11.3041 117.059C11.2646 117.197 11.1382 117.312 10.9724 117.312C10.7079 117.312 9.54706 117.075 8.34282 117.075C5.48818 117.075 4.2563 117.841 3.20999 123.57C2.91387 125.169 2.75988 126.381 2.75988 127.333C2.75988 129.722 3.75881 130.195 5.87117 130.195C7.38733 130.195 8.30729 129.899 8.69422 129.899C8.8561 129.899 8.94297 130.014 8.92717 130.184L8.86795 131.368C8.84821 131.759 8.66264 131.996 8.2836 132.158C7.794 132.359 6.94116 132.56 4.98279 132.56C1.39771 132.56 0 130.985 0 127.684C0 126.575 0.16978 125.224 0.473801 123.574C1.64646 117.13 3.46664 114.655 8.18884 114.655C9.89846 114.647 10.9092 114.809 11.4225 114.951Z" fill="black"/>
    <path d="M27.7491 119.033C27.7491 120.249 27.5596 121.75 27.2358 123.566C26.1342 129.804 24.8431 132.552 19.8169 132.552C16.2239 132.552 15.0276 131.147 15.0276 128.126C15.0276 126.895 15.2329 125.386 15.5527 123.566C16.6504 117.344 17.9296 114.678 22.9677 114.678C26.5567 114.678 27.7491 116.041 27.7491 119.033ZM22.5294 117.17C20.0064 117.17 19.2247 118.145 18.2613 123.594C17.9533 125.343 17.7914 126.634 17.7914 127.582C17.7914 129.599 18.5416 130.049 20.2591 130.049C22.6992 130.049 23.5323 129.074 24.4957 123.594C24.7958 121.888 24.9616 120.617 24.9616 119.677C24.9655 117.624 24.2035 117.17 22.5294 117.17Z" fill="black"/>
    <path d="M46.4282 114.904C46.9534 114.904 47.2179 115.227 47.1113 115.831L44.2527 132.047C44.2211 132.217 44.0869 132.331 43.9171 132.331H41.8284C41.6744 132.331 41.5797 132.217 41.6113 132.047L43.5696 120.94C43.5933 120.802 43.5262 120.783 43.4393 120.901L40.1267 125.145C39.8464 125.509 39.4792 125.682 39.108 125.682C38.7329 125.682 38.4289 125.509 38.2749 125.145L36.4587 120.901C36.4113 120.783 36.3363 120.802 36.3126 120.94L34.3542 132.047C34.3227 132.217 34.1884 132.331 34.0344 132.331H31.9458C31.776 132.331 31.6812 132.217 31.7089 132.047L34.5674 115.831C34.6741 115.227 35.0531 114.904 35.5782 114.904H35.977C36.435 114.904 36.6245 115.085 36.7548 115.389L39.5029 121.785C39.5976 122.01 39.6253 122.058 39.7437 122.058C39.8661 122.058 39.9056 122.01 40.0833 121.785L45.0858 115.389C45.3266 115.085 45.5754 114.904 46.0334 114.904H46.4282Z" fill="black"/>
    <path d="M65.4749 114.904C66 114.904 66.2646 115.227 66.158 115.831L63.2994 132.047C63.2678 132.217 63.1336 132.331 62.9638 132.331H60.8751C60.7211 132.331 60.6264 132.217 60.654 132.047L62.6124 120.94C62.6361 120.802 62.5689 120.783 62.4821 120.901L59.1694 125.145C58.8891 125.509 58.5219 125.682 58.1508 125.682C57.7796 125.682 57.4716 125.509 57.3177 125.145L55.5014 120.901C55.4541 120.783 55.379 120.802 55.3553 120.94L53.397 132.047C53.3654 132.217 53.2311 132.331 53.0772 132.331H50.9885C50.8187 132.331 50.724 132.217 50.7555 132.047L53.6141 115.831C53.7207 115.227 54.0998 114.904 54.6249 114.904H55.0197C55.4817 114.904 55.6673 115.085 55.7976 115.389L58.5456 121.785C58.6404 122.01 58.668 122.058 58.7864 122.058C58.9049 122.058 58.9483 122.01 59.126 121.785L64.1285 115.389C64.3694 115.085 64.6181 114.904 65.0761 114.904H65.4749Z" fill="black"/>
    <path d="M83.357 114.904C83.4952 114.904 83.6058 115.018 83.5742 115.188L81.4421 127.293C80.8459 130.673 79.7166 132.489 75.1524 132.489C70.592 132.489 70.1064 130.673 70.7026 127.293L72.8387 115.188C72.8702 115.018 73.0045 114.904 73.1585 114.904H75.2155C75.3853 114.904 75.4959 115.018 75.4643 115.188L73.3204 127.337C72.9492 129.437 73.3124 130.097 75.5709 130.097C77.7977 130.097 78.4176 129.437 78.7848 127.337L80.9288 115.188C80.9604 115.018 81.0946 114.904 81.2644 114.904H83.357Z" fill="black"/>
    <path d="M100.698 114.904C100.836 114.904 100.947 115.018 100.919 115.172L98.0569 131.404C97.9503 132.008 97.5712 132.331 96.9671 132.331H96.1538C95.9327 132.331 95.8142 132.256 95.7629 132.106L91.8501 120.948C91.7869 120.802 91.6685 120.834 91.6369 120.996L89.6943 132.063C89.6667 132.217 89.5166 132.331 89.3784 132.331H87.274C87.12 132.331 87.0252 132.217 87.0529 132.063L89.9154 115.831C90.022 115.227 90.401 114.904 91.0051 114.904H91.9488C92.2212 114.904 92.3278 114.979 92.4226 115.192L96.1538 126.058C96.2011 126.204 96.3512 126.172 96.3828 126.01L98.2977 115.176C98.3253 115.022 98.4596 114.907 98.5978 114.907H100.698V114.904Z" fill="black"/>
    <path d="M109.728 114.904C109.965 114.904 110.072 115.034 110.028 115.267L107.083 131.964C107.043 132.201 106.889 132.327 106.652 132.327H104.69C104.453 132.327 104.346 132.197 104.39 131.964L107.335 115.267C107.379 115.03 107.529 114.904 107.766 114.904H109.728Z" fill="black"/>
    <path d="M125.474 114.951C125.758 115.022 125.873 115.211 125.786 115.512L125.355 117.059C125.316 117.197 125.189 117.312 125.024 117.312C124.759 117.312 123.598 117.075 122.394 117.075C119.539 117.075 118.308 117.841 117.261 123.57C116.965 125.169 116.811 126.381 116.811 127.333C116.811 129.722 117.81 130.195 119.922 130.195C121.439 130.195 122.359 129.899 122.745 129.899C122.911 129.899 122.994 130.014 122.978 130.184L122.919 131.368C122.899 131.759 122.714 131.996 122.335 132.158C121.845 132.359 120.992 132.56 119.034 132.56C115.449 132.56 114.051 130.985 114.051 127.684C114.051 126.575 114.221 125.224 114.525 123.574C115.698 117.13 117.518 114.655 122.24 114.655C123.946 114.647 124.957 114.809 125.474 114.951Z" fill="black"/>
    <path d="M157.025 114.892C157.262 114.892 157.368 115.022 157.325 115.255L157.033 116.917C156.993 117.154 156.839 117.284 156.602 117.284H153.025C152.934 117.284 152.824 117.351 152.808 117.458L150.249 131.964C150.21 132.201 150.056 132.327 149.819 132.327H147.924C147.687 132.327 147.58 132.197 147.624 131.964L150.182 117.458C150.202 117.351 150.131 117.284 150.04 117.284H146.431C146.194 117.284 146.088 117.154 146.131 116.917L146.423 115.255C146.463 115.018 146.617 114.892 146.854 114.892H157.025Z" fill="black"/>
    <path d="M171.136 114.903C171.369 114.903 171.48 115.034 171.436 115.267L171.14 116.945C171.101 117.182 170.955 117.312 170.71 117.312H167.381C165.143 117.312 164.637 117.6 164.282 119.618L163.851 122.058C163.836 122.149 163.903 122.232 163.994 122.232H168.791C169.028 122.232 169.134 122.362 169.091 122.595L168.795 124.273C168.751 124.51 168.601 124.64 168.364 124.64H163.567C163.476 124.64 163.378 124.739 163.362 124.818L162.868 127.613C162.513 129.631 162.916 129.919 165.154 129.919H168.483C168.728 129.919 168.826 130.049 168.783 130.282L168.487 131.964C168.443 132.201 168.301 132.327 168.056 132.327H164.408C160.503 132.327 159.619 131.044 160.172 127.921L161.692 119.306C162.245 116.183 163.579 114.9 167.002 114.9H171.136V114.903Z" fill="black"/>
    <path d="M136.746 114.678C132.632 114.678 131.333 116.945 130.397 122.16L128.668 131.964C128.625 132.201 128.735 132.331 128.968 132.331H130.883C131.104 132.331 131.25 132.213 131.302 132C131.305 131.988 131.309 131.98 131.313 131.964L132.024 127.941C132.04 127.846 132.095 127.799 132.162 127.767C132.194 127.751 132.225 127.736 132.265 127.736H136.802C136.877 127.736 136.92 127.767 136.948 127.818C136.963 127.85 136.979 127.886 136.971 127.941L136.261 131.964C136.245 132.059 136.257 132.134 136.288 132.193C136.332 132.28 136.422 132.331 136.561 132.331H138.472C138.709 132.331 138.859 132.201 138.902 131.964L139.826 126.721C140.035 125.789 140.221 124.739 140.402 123.566C140.442 123.321 140.473 123.092 140.505 122.859C140.541 122.622 140.576 122.386 140.604 122.16C140.762 120.964 140.853 119.922 140.853 119.033C140.853 116.041 139.707 114.678 136.746 114.678ZM137.461 125.122C137.441 125.244 137.342 125.327 137.22 125.327H132.683C132.561 125.327 132.494 125.244 132.514 125.122L133.035 122.16H133.023C133.852 117.963 134.33 117.17 136.351 117.17C137.571 117.17 138.176 117.624 138.176 119.677C138.176 120.36 138.097 121.225 137.95 122.303L137.461 125.122Z" fill="black"/>
</svg>