<svg width="34" height="15" viewBox="0 0 34 15" fill="none" xmlns="http://www.w3.org/2000/svg"><path d="M10.9363 8.98876C10.7498 8.89564 9.8323 8.44689 9.66149 8.38439C9.49006 8.32251 9.36572 8.29189 9.24075 8.47814C9.11703 8.66376 8.75908 9.08189 8.65044 9.20564C8.5418 9.33001 8.43253 9.34501 8.24602 9.25251C8.05951 9.15876 7.45791 8.96314 6.74515 8.33064C6.19064 7.83814 5.81574 7.23001 5.7071 7.04376C5.59845 6.85814 5.69579 6.75751 5.78873 6.66501C5.87288 6.58189 5.97587 6.44814 6.06881 6.34002C6.16238 6.23127 6.19315 6.15377 6.25595 6.02939C6.31812 5.90564 6.28735 5.79752 6.24025 5.70439C6.19315 5.61127 5.82013 4.69689 5.66502 4.32502C5.51305 3.96314 5.35919 4.01252 5.2449 4.00627C5.13626 4.00127 5.01192 4.00002 4.88695 4.00002C4.76261 4.00002 4.5604 4.04627 4.38959 4.23252C4.21878 4.41814 3.73649 4.86752 3.73649 5.78189C3.73649 6.69564 4.40529 7.57876 4.49823 7.70314C4.5918 7.82689 5.81448 9.70313 7.68649 10.5075C8.13173 10.6988 8.479 10.8131 8.75029 10.8981C9.19742 11.04 9.60435 11.02 9.92525 10.9719C10.2838 10.9188 11.0292 10.5225 11.185 10.0888C11.3407 9.65501 11.3407 9.28314 11.2936 9.20564C11.2471 9.12814 11.1228 9.08189 10.9357 8.98876H10.9363ZM7.53138 13.6156H7.52887C6.4172 13.6157 5.32596 13.3182 4.36949 12.7544L4.14279 12.6206L1.79352 13.2344L2.42024 10.9544L2.27266 10.7206C1.65124 9.7358 1.32249 8.59607 1.32441 7.43314C1.32504 4.02689 4.11014 1.25565 7.53389 1.25565C9.19176 1.25565 10.7504 1.8994 11.9222 3.0669C12.5004 3.63978 12.9587 4.3211 13.2705 5.07142C13.5824 5.82174 13.7416 6.62617 13.739 7.43814C13.7371 10.8444 10.9526 13.6156 7.53138 13.6156ZM12.8146 2.18002C12.1227 1.48685 11.2994 0.937235 10.3925 0.563025C9.48562 0.188815 8.51313 -0.00254765 7.53138 2.56109e-05C3.41496 2.56109e-05 0.0646821 3.3344 0.0627981 7.43251C0.0627981 8.74251 0.406304 10.0213 1.06003 11.1481L0 15L3.95942 13.9663C5.05437 14.56 6.28134 14.8711 7.52824 14.8713H7.53138C11.6472 14.8713 14.9981 11.5369 15 7.43814C15.003 6.46144 14.8114 5.49383 14.4363 4.59129C14.0612 3.68875 13.51 2.86919 12.8146 2.18002Z" fill="#6F7074"/><path d="M25.9264 2.04167e-05C23.9434 0.00927475 22.0447 0.803534 20.6457 2.20905C19.2468 3.61457 18.4614 5.51694 18.4614 7.50001C18.4614 9.48913 19.2516 11.3968 20.6581 12.8033C22.0646 14.2098 23.9723 15 25.9614 15C27.9505 15 29.8582 14.2098 31.2647 12.8033C32.6712 11.3968 33.4614 9.48913 33.4614 7.50001C33.4614 5.51089 32.6712 3.60324 31.2647 2.19672C29.8582 0.790196 27.9505 2.04167e-05 25.9614 2.04167e-05C25.9498 -6.80556e-06 25.9381 -6.80556e-06 25.9264 2.04167e-05ZM29.0277 4.51501C29.0902 4.51376 29.2283 4.52939 29.3183 4.60251C29.3781 4.65445 29.4162 4.72694 29.4252 4.80564C29.4352 4.86376 29.4477 4.99689 29.4377 5.10064C29.3252 6.28689 28.8364 9.16438 28.5877 10.4925C28.4827 11.055 28.2758 11.2431 28.0752 11.2613C27.6402 11.3019 27.3096 10.9738 26.8877 10.6975C26.2277 10.2644 25.8546 9.99501 25.2139 9.57251C24.4733 9.08501 24.9533 8.81626 25.3752 8.37876C25.4858 8.26376 27.4046 6.51814 27.4421 6.36001C27.4464 6.34001 27.4508 6.26626 27.4071 6.22751C27.3633 6.18876 27.2983 6.20189 27.2514 6.21251C27.1852 6.22751 26.1308 6.92501 24.0883 8.30313C23.7883 8.50938 23.5177 8.60938 23.2746 8.60313C23.0071 8.59813 22.4921 8.45251 22.1089 8.32813C21.6389 8.17501 21.2658 8.09438 21.2983 7.83501C21.3152 7.70001 21.5014 7.56189 21.8564 7.42064C24.0427 6.46814 25.5002 5.84001 26.2302 5.53689C28.3127 4.67064 28.7458 4.52001 29.0277 4.51501Z" fill="#6F7074"/></svg>